<svg width="1440" height="2544" viewBox="0 0 1440 2544" fill="none" xmlns="http://www.w3.org/2000/svg">
<g clip-path="url(#clip0_2988_28444)">
<rect width="1440" height="2544" fill="#FF5959"/>
<rect opacity="0.5" x="873" y="-14" width="34" height="34" rx="7" fill="white"/>
<rect opacity="0.6" x="211" y="202" width="34" height="34" rx="7" fill="#BED62F"/>
<rect opacity="0.6" x="1353" y="689" width="92" height="92" rx="7" fill="#BED62F"/>
<path d="M74.8474 1121.62C48.8068 1165.47 14.4834 1201.4 -20.2015 1201.3C-55.0698 1201.31 -90.3711 1165.59 -112.843 1125.55C-135.132 1085.4 -144.591 1040.92 -128.414 998.879C-112.054 956.729 -70.4244 917.232 -21.9118 913.42C26.7129 909.793 82.037 941.959 100.728 983.989C119.124 1025.94 101.183 1077.84 74.8474 1121.62Z" fill="url(#paint0_linear_2988_28444)"/>
<circle opacity="0.1" cx="706" cy="578" r="347" stroke="white" stroke-width="2" stroke-linecap="round" stroke-dasharray="8 8"/>
<circle opacity="0.07" cx="706" cy="578" r="206" stroke="white" stroke-width="2" stroke-linecap="round" stroke-dasharray="8 8"/>
<g opacity="0.3" filter="url(#filter0_f_2988_28444)">
<path d="M1362.58 993L1342.12 972.544C1340.57 973.893 1338.75 974.943 1336.68 975.694C1334.6 976.446 1332.4 976.822 1330.07 976.822C1324.47 976.822 1319.72 974.878 1315.83 970.989C1311.94 967.1 1310 962.407 1310 956.911C1310 951.415 1311.94 946.722 1315.83 942.833C1319.72 938.944 1324.44 937 1329.99 937C1335.49 937 1340.16 938.944 1344.03 942.833C1347.89 946.722 1349.82 951.415 1349.82 956.911C1349.82 959.141 1349.46 961.293 1348.73 963.367C1348.01 965.441 1346.92 967.385 1345.47 969.2L1366 989.578L1362.58 993ZM1329.99 972.156C1334.19 972.156 1337.77 970.665 1340.72 967.683C1343.68 964.702 1345.16 961.111 1345.16 956.911C1345.16 952.711 1343.68 949.12 1340.72 946.139C1337.77 943.157 1334.19 941.667 1329.99 941.667C1325.74 941.667 1322.12 943.157 1319.14 946.139C1316.16 949.12 1314.67 952.711 1314.67 956.911C1314.67 961.111 1316.16 964.702 1319.14 967.683C1322.12 970.665 1325.74 972.156 1329.99 972.156Z" fill="white"/>
</g>
<g opacity="0.5" filter="url(#filter1_f_2988_28444)">
<path d="M339.925 590C339.145 590 338.463 589.716 337.878 589.147C337.293 588.579 337 587.916 337 587.158V563.805C337 563.047 337.293 562.384 337.878 561.816C338.463 561.247 339.145 560.963 339.925 560.963H349.188V556.842C349.188 556.084 349.48 555.421 350.065 554.853C350.65 554.284 351.333 554 352.113 554H360.888C361.668 554 362.35 554.284 362.935 554.853C363.52 555.421 363.813 556.084 363.813 556.842V560.963H373.075C373.855 560.963 374.537 561.247 375.122 561.816C375.707 562.384 376 563.047 376 563.805V587.158C376 587.916 375.707 588.579 375.122 589.147C374.537 589.716 373.855 590 373.075 590H339.925ZM352.113 560.963H360.888V556.842H352.113V560.963ZM339.925 587.158H373.075V563.805H339.925V587.158ZM339.925 587.158V563.805V587.158Z" fill="white"/>
</g>
<g opacity="0.3" filter="url(#filter2_f_2988_28444)">
<path d="M68.1001 1352.27L84.1309 1328.83L79.5697 1326.39L66.7028 1345.2L55.6875 1339.13L52.5939 1343.65L68.1001 1352.27ZM77.2002 1373.01C68.3774 1373.1 60.4519 1370.32 53.4238 1364.67C46.3956 1359.03 41.8999 1352.08 39.9365 1343.82L35.3251 1324.43L61.6997 1307.82L92.7244 1310.78L97.3358 1330.17C99.2992 1338.43 98.4138 1346.66 94.6796 1354.86C90.9453 1363.07 85.1188 1369.12 77.2002 1373.01ZM75.9989 1367.96C82.384 1364.26 87.0626 1359.03 90.0347 1352.26C93.0068 1345.5 93.6468 1338.56 91.9546 1331.45L88.157 1315.48L62.9397 1313.04L41.52 1326.57L45.3177 1342.54C47.0098 1349.65 50.7047 1355.56 56.4023 1360.26C62.0999 1364.96 68.6321 1367.53 75.9989 1367.96Z" fill="white"/>
</g>
<g opacity="0.3" filter="url(#filter3_f_2988_28444)">
<path d="M1229.63 1621.12L1250.75 1602.14L1246.89 1598.69L1229.94 1613.92L1220.68 1605.41L1216.6 1609.08L1229.63 1621.12ZM1233.56 1643.42C1224.97 1641.42 1217.92 1636.85 1212.43 1629.7C1206.94 1622.55 1204.22 1614.73 1204.26 1606.24L1204.37 1586.31L1233.93 1576.42L1263.37 1586.63L1263.26 1606.57C1263.22 1615.05 1260.41 1622.84 1254.84 1629.93C1249.27 1637.02 1242.17 1641.51 1233.56 1643.42ZM1233.59 1638.23C1240.67 1636.15 1246.45 1632.17 1250.94 1626.31C1255.43 1620.44 1257.69 1613.85 1257.73 1606.54L1257.82 1590.12L1233.9 1581.78L1209.88 1589.86L1209.79 1606.27C1209.75 1613.59 1211.95 1620.2 1216.37 1626.12C1220.79 1632.03 1226.53 1636.07 1233.59 1638.23Z" fill="white"/>
</g>
<path opacity="0.5" d="M1214.16 1445.44C1108.04 1479.28 999.897 1488.17 943.404 1437.71C886.455 1387.16 880.613 1277.64 901.991 1179.67C923.827 1081.79 972.882 995.447 1060.26 950.261C1148.1 905.164 1273.36 901.045 1358.1 965.173C1442.75 1029.77 1486.44 1162.52 1456 1258.25C1425.2 1353.43 1320.65 1412.15 1214.16 1445.44Z" fill="#DF001B"/>
<path opacity="0.5" d="M493.866 1713.49C501.86 1824.59 485.116 1931.8 422.808 1974.87C360.306 2018.37 252.479 1998.34 162.26 1954.57C72.2347 1910.37 -0.181831 1842.42 -23.5981 1746.88C-46.8209 1650.91 -21.4303 1528.18 60.7948 1460.86C143.452 1393.73 282.75 1382.42 368.668 1434.47C453.96 1486.75 486.498 1602.16 493.866 1713.49Z" fill="#DF001B"/>
<circle opacity="0.08" cx="1352.5" cy="2076.5" r="425.5" stroke="white" stroke-width="2" stroke-linecap="round" stroke-dasharray="8 8"/>
<circle opacity="0.08" cx="1352.5" cy="2076.5" r="252.694" stroke="white" stroke-width="2" stroke-linecap="round" stroke-dasharray="8 8"/>
<rect opacity="0.4" x="1125" y="1905" width="41.6695" height="41.6695" rx="7" fill="url(#paint1_linear_2988_28444)"/>
<path opacity="0.5" d="M960.614 588.124C974.234 689.051 963.523 787.644 905.014 829.98C846.337 872.711 740.126 859.735 649.844 824.236C559.728 788.342 485.54 729.924 457.695 643.935C430.016 557.551 448.346 444.386 525.009 378.958C602.103 313.684 737.364 296.541 823.886 339.799C909.81 383.298 947.593 486.955 960.614 588.124Z" fill="#DF001B"/>
</g>
<defs>
<filter id="filter0_f_2988_28444" x="1306" y="933" width="64" height="64" filterUnits="userSpaceOnUse" color-interpolation-filters="sRGB">
<feFlood flood-opacity="0" result="BackgroundImageFix"/>
<feBlend mode="normal" in="SourceGraphic" in2="BackgroundImageFix" result="shape"/>
<feGaussianBlur stdDeviation="2" result="effect1_foregroundBlur_2988_28444"/>
</filter>
<filter id="filter1_f_2988_28444" x="333" y="550" width="47" height="44" filterUnits="userSpaceOnUse" color-interpolation-filters="sRGB">
<feFlood flood-opacity="0" result="BackgroundImageFix"/>
<feBlend mode="normal" in="SourceGraphic" in2="BackgroundImageFix" result="shape"/>
<feGaussianBlur stdDeviation="2" result="effect1_foregroundBlur_2988_28444"/>
</filter>
<filter id="filter2_f_2988_28444" x="31.3252" y="1303.82" width="71.0256" height="73.1843" filterUnits="userSpaceOnUse" color-interpolation-filters="sRGB">
<feFlood flood-opacity="0" result="BackgroundImageFix"/>
<feBlend mode="normal" in="SourceGraphic" in2="BackgroundImageFix" result="shape"/>
<feGaussianBlur stdDeviation="2" result="effect1_foregroundBlur_2988_28444"/>
</filter>
<filter id="filter3_f_2988_28444" x="1200.26" y="1572.42" width="67.1084" height="74.999" filterUnits="userSpaceOnUse" color-interpolation-filters="sRGB">
<feFlood flood-opacity="0" result="BackgroundImageFix"/>
<feBlend mode="normal" in="SourceGraphic" in2="BackgroundImageFix" result="shape"/>
<feGaussianBlur stdDeviation="2" result="effect1_foregroundBlur_2988_28444"/>
</filter>
<linearGradient id="paint0_linear_2988_28444" x1="61.2599" y1="664.042" x2="-45.6651" y2="1257.46" gradientUnits="userSpaceOnUse">
<stop stop-color="#E1F767" stop-opacity="0.4"/>
<stop offset="0.0001" stop-color="#BED62F"/>
<stop offset="1" stop-color="#FFEE83" stop-opacity="0"/>
</linearGradient>
<linearGradient id="paint1_linear_2988_28444" x1="1123.16" y1="1905" x2="1155.03" y2="1940.54" gradientUnits="userSpaceOnUse">
<stop stop-color="#BED62F"/>
<stop offset="1" stop-color="#FFDD00"/>
</linearGradient>
<clipPath id="clip0_2988_28444">
<rect width="1440" height="2544" fill="white"/>
</clipPath>
</defs>
</svg>
