<svg width="470" height="314" viewBox="0 0 470 314" fill="none" xmlns="http://www.w3.org/2000/svg">
<g filter="url(#filter0_d_2778_20982)">
<g clip-path="url(#clip0_2778_20982)">
<rect x="7" y="6" width="449.481" height="293.346" rx="14.1942" fill="white"/>
<rect x="-2.46265" y="6" width="458.944" height="37.8511" fill="#231F20"/>
<rect x="6.63281" y="43.8508" width="177.427" height="255.495" fill="#B2EBFD"/>
<path d="M223.801 75.8845V77.7766H217.874V75.8845H223.801ZM218.659 66.0036V77.7766H216.233V66.0036H218.659ZM227.504 69.0277V77.7766H225.168V69.0277H227.504ZM225.022 66.7475C225.022 66.4079 225.141 66.1276 225.378 65.9066C225.615 65.6856 225.933 65.575 226.332 65.575C226.726 65.575 227.041 65.6856 227.278 65.9066C227.521 66.1276 227.642 66.4079 227.642 66.7475C227.642 67.0871 227.521 67.3674 227.278 67.5884C227.041 67.8094 226.726 67.9199 226.332 67.9199C225.933 67.9199 225.615 67.8094 225.378 67.5884C225.141 67.3674 225.022 67.0871 225.022 66.7475ZM234.159 75.3589C234.159 75.1918 234.111 75.0409 234.014 74.9061C233.917 74.7714 233.736 74.6474 233.472 74.5342C233.213 74.4156 232.838 74.3078 232.348 74.2107C231.906 74.1137 231.494 73.9924 231.111 73.8469C230.733 73.6959 230.405 73.5154 230.124 73.3051C229.849 73.0949 229.634 72.8469 229.477 72.5612C229.321 72.2701 229.243 71.9386 229.243 71.5667C229.243 71.2001 229.321 70.8551 229.477 70.5317C229.639 70.2082 229.868 69.9225 230.165 69.6746C230.467 69.4212 230.833 69.2245 231.264 69.0843C231.701 68.9388 232.192 68.866 232.736 68.866C233.496 68.866 234.148 68.9873 234.693 69.2299C235.243 69.4724 235.663 69.8066 235.954 70.2325C236.251 70.653 236.399 71.1327 236.399 71.6718H234.07C234.07 71.4454 234.022 71.2432 233.925 71.0653C233.833 70.8821 233.687 70.7392 233.488 70.6368C233.294 70.529 233.041 70.4751 232.728 70.4751C232.469 70.4751 232.246 70.5209 232.057 70.6125C231.868 70.6988 231.723 70.8174 231.62 70.9683C231.523 71.1139 231.475 71.2756 231.475 71.4535C231.475 71.5882 231.502 71.7095 231.556 71.8173C231.615 71.9198 231.709 72.0141 231.839 72.1003C231.968 72.1866 232.135 72.2674 232.34 72.3429C232.55 72.413 232.809 72.4777 233.116 72.537C233.747 72.6663 234.31 72.8362 234.806 73.0464C235.302 73.2512 235.695 73.5315 235.987 73.8873C236.278 74.2377 236.423 74.6986 236.423 75.27C236.423 75.6581 236.337 76.0139 236.164 76.3373C235.992 76.6608 235.744 76.9438 235.421 77.1863C235.097 77.4235 234.709 77.6095 234.256 77.7443C233.809 77.8736 233.305 77.9383 232.744 77.9383C231.93 77.9383 231.24 77.7928 230.674 77.5017C230.114 77.2106 229.688 76.8413 229.397 76.3939C229.111 75.9411 228.968 75.4775 228.968 75.0032H231.175C231.186 75.3212 231.267 75.5773 231.418 75.7713C231.574 75.9654 231.771 76.1055 232.008 76.1918C232.251 76.278 232.512 76.3212 232.793 76.3212C233.095 76.3212 233.345 76.2807 233.545 76.1999C233.744 76.1136 233.895 76.0004 233.997 75.8603C234.105 75.7147 234.159 75.5476 234.159 75.3589ZM242.221 69.0277V70.6772H237.127V69.0277H242.221ZM238.388 66.8688H240.717V75.1406C240.717 75.394 240.749 75.588 240.814 75.7228C240.884 75.8576 240.986 75.9519 241.121 76.0058C241.256 76.0543 241.426 76.0786 241.63 76.0786C241.776 76.0786 241.905 76.0732 242.019 76.0624C242.137 76.0462 242.237 76.0301 242.318 76.0139L242.326 77.7281C242.126 77.7928 241.911 77.844 241.679 77.8817C241.447 77.9195 241.191 77.9383 240.911 77.9383C240.399 77.9383 239.951 77.8548 239.569 77.6877C239.191 77.5152 238.9 77.2402 238.695 76.8629C238.49 76.4856 238.388 75.9896 238.388 75.3751V66.8688ZM247.299 73.4911V73.3213C247.299 72.6798 247.39 72.0896 247.574 71.5505C247.757 71.0061 248.024 70.5344 248.374 70.1355C248.724 69.7366 249.156 69.4266 249.668 69.2056C250.18 68.9792 250.768 68.866 251.431 68.866C252.094 68.866 252.684 68.9792 253.201 69.2056C253.719 69.4266 254.153 69.7366 254.503 70.1355C254.859 70.5344 255.128 71.0061 255.312 71.5505C255.495 72.0896 255.587 72.6798 255.587 73.3213V73.4911C255.587 74.1272 255.495 74.7175 255.312 75.2619C255.128 75.801 254.859 76.2726 254.503 76.6769C254.153 77.0758 253.722 77.3858 253.209 77.6068C252.697 77.8278 252.11 77.9383 251.447 77.9383C250.784 77.9383 250.193 77.8278 249.676 77.6068C249.164 77.3858 248.73 77.0758 248.374 76.6769C248.024 76.2726 247.757 75.801 247.574 75.2619C247.39 74.7175 247.299 74.1272 247.299 73.4911ZM249.627 73.3213V73.4911C249.627 73.8577 249.66 74.2 249.724 74.518C249.789 74.8361 249.892 75.1164 250.032 75.3589C250.177 75.5961 250.366 75.7821 250.598 75.9169C250.83 76.0516 251.113 76.119 251.447 76.119C251.77 76.119 252.048 76.0516 252.28 75.9169C252.511 75.7821 252.697 75.5961 252.837 75.3589C252.978 75.1164 253.08 74.8361 253.145 74.518C253.215 74.2 253.25 73.8577 253.25 73.4911V73.3213C253.25 72.9655 253.215 72.6313 253.145 72.3187C253.08 72.0006 252.975 71.7203 252.829 71.4777C252.689 71.2298 252.503 71.0357 252.271 70.8955C252.04 70.7554 251.759 70.6853 251.431 70.6853C251.102 70.6853 250.821 70.7554 250.59 70.8955C250.363 71.0357 250.177 71.2298 250.032 71.4777C249.892 71.7203 249.789 72.0006 249.724 72.3187C249.66 72.6313 249.627 72.9655 249.627 73.3213ZM259.985 77.7766H257.64V68.2515C257.64 67.5884 257.77 67.0305 258.029 66.5777C258.293 66.1195 258.662 65.7745 259.136 65.5427C259.616 65.3055 260.185 65.1869 260.842 65.1869C261.058 65.1869 261.266 65.2031 261.465 65.2354C261.665 65.2624 261.859 65.2974 262.047 65.3406L262.023 67.0952C261.921 67.0682 261.813 67.0494 261.7 67.0386C261.586 67.0278 261.454 67.0224 261.303 67.0224C261.023 67.0224 260.783 67.0709 260.584 67.168C260.39 67.2596 260.241 67.3971 260.139 67.5803C260.037 67.7636 259.985 67.9873 259.985 68.2515V77.7766ZM261.732 69.0277V70.6772H256.339V69.0277H261.732ZM276.893 71.6152V72.1731C276.893 73.0679 276.772 73.8711 276.529 74.5827C276.286 75.2943 275.944 75.9007 275.502 76.402C275.06 76.8979 274.532 77.278 273.917 77.5421C273.308 77.8063 272.632 77.9383 271.888 77.9383C271.149 77.9383 270.473 77.8063 269.858 77.5421C269.249 77.278 268.721 76.8979 268.273 76.402C267.826 75.9007 267.478 75.2943 267.23 74.5827C266.988 73.8711 266.866 73.0679 266.866 72.1731V71.6152C266.866 70.715 266.988 69.9118 267.23 69.2056C267.473 68.494 267.815 67.8876 268.257 67.3863C268.705 66.885 269.233 66.5022 269.842 66.2381C270.457 65.9739 271.133 65.8419 271.872 65.8419C272.616 65.8419 273.292 65.9739 273.901 66.2381C274.516 66.5022 275.044 66.885 275.486 67.3863C275.933 67.8876 276.278 68.494 276.521 69.2056C276.769 69.9118 276.893 70.715 276.893 71.6152ZM274.443 72.1731V71.599C274.443 70.9737 274.386 70.4239 274.273 69.9495C274.16 69.4751 273.993 69.0762 273.772 68.7528C273.551 68.4294 273.281 68.1868 272.963 68.0251C272.645 67.858 272.281 67.7744 271.872 67.7744C271.462 67.7744 271.098 67.858 270.78 68.0251C270.467 68.1868 270.201 68.4294 269.98 68.7528C269.764 69.0762 269.599 69.4751 269.486 69.9495C269.373 70.4239 269.316 70.9737 269.316 71.599V72.1731C269.316 72.793 269.373 73.3429 269.486 73.8226C269.599 74.297 269.767 74.6986 269.988 75.0274C270.209 75.3509 270.478 75.5961 270.796 75.7632C271.114 75.9303 271.478 76.0139 271.888 76.0139C272.297 76.0139 272.661 75.9303 272.979 75.7632C273.297 75.5961 273.564 75.3509 273.78 75.0274C273.995 74.6986 274.16 74.297 274.273 73.8226C274.386 73.3429 274.443 72.793 274.443 72.1731ZM280.823 70.7096V81.1403H278.494V69.0277H280.653L280.823 70.7096ZM286.361 73.3051V73.4749C286.361 74.111 286.286 74.7013 286.135 75.2457C285.99 75.7902 285.774 76.2646 285.488 76.6688C285.202 77.0678 284.847 77.3804 284.421 77.6068C284 77.8278 283.515 77.9383 282.965 77.9383C282.432 77.9383 281.968 77.8305 281.575 77.6149C281.181 77.3993 280.85 77.0974 280.58 76.7093C280.316 76.3158 280.103 75.8603 279.941 75.3428C279.78 74.8253 279.656 74.27 279.569 73.6771V73.2324C279.656 72.5963 279.78 72.0141 279.941 71.4858C280.103 70.9521 280.316 70.4913 280.58 70.1031C280.85 69.7096 281.178 69.4051 281.567 69.1894C281.96 68.9738 282.421 68.866 282.949 68.866C283.504 68.866 283.992 68.9711 284.413 69.1813C284.839 69.3916 285.194 69.6934 285.48 70.087C285.771 70.4805 285.99 70.9494 286.135 71.4939C286.286 72.0383 286.361 72.6421 286.361 73.3051ZM284.025 73.4749V73.3051C284.025 72.9332 283.992 72.5909 283.928 72.2782C283.868 71.9602 283.771 71.6826 283.637 71.4454C283.507 71.2082 283.335 71.0249 283.119 70.8955C282.909 70.7608 282.653 70.6934 282.351 70.6934C282.033 70.6934 281.761 70.7446 281.534 70.847C281.313 70.9494 281.133 71.0977 280.992 71.2918C280.852 71.4858 280.747 71.7176 280.677 71.9871C280.607 72.2567 280.564 72.5612 280.548 72.9008V74.0248C280.575 74.4237 280.65 74.7821 280.774 75.1002C280.898 75.4128 281.089 75.6608 281.348 75.8441C281.607 76.0274 281.947 76.119 282.367 76.119C282.674 76.119 282.933 76.0516 283.143 75.9169C283.354 75.7767 283.523 75.5853 283.653 75.3428C283.787 75.1002 283.882 74.8199 283.936 74.5018C283.995 74.1838 284.025 73.8415 284.025 73.4749ZM291.836 77.9383C291.156 77.9383 290.547 77.8305 290.008 77.6149C289.469 77.3939 289.011 77.0893 288.634 76.7012C288.262 76.3131 287.976 75.863 287.777 75.3509C287.577 74.8334 287.477 74.2835 287.477 73.7013V73.3779C287.477 72.7149 287.572 72.1084 287.76 71.5586C287.949 71.0087 288.219 70.5317 288.569 70.1274C288.925 69.7231 289.356 69.4131 289.863 69.1975C290.369 68.9765 290.941 68.866 291.577 68.866C292.197 68.866 292.747 68.9684 293.226 69.1733C293.706 69.3781 294.108 69.6692 294.431 70.0465C294.76 70.4239 295.008 70.8767 295.175 71.405C295.342 71.9278 295.426 72.51 295.426 73.1515V74.1218H288.472V72.5693H293.137V72.3914C293.137 72.068 293.078 71.7796 292.96 71.5262C292.846 71.2675 292.674 71.0627 292.442 70.9117C292.21 70.7608 291.914 70.6853 291.553 70.6853C291.245 70.6853 290.981 70.7527 290.76 70.8875C290.539 71.0222 290.359 71.2109 290.218 71.4535C290.084 71.696 289.981 71.9817 289.911 72.3106C289.846 72.634 289.814 72.9898 289.814 73.3779V73.7013C289.814 74.0517 289.863 74.3752 289.96 74.6716C290.062 74.9681 290.205 75.2242 290.388 75.4398C290.577 75.6554 290.803 75.8225 291.067 75.9411C291.337 76.0597 291.642 76.119 291.981 76.119C292.402 76.119 292.792 76.0382 293.154 75.8764C293.52 75.7093 293.836 75.4587 294.1 75.1244L295.232 76.3535C295.048 76.6176 294.798 76.871 294.48 77.1136C294.167 77.3561 293.79 77.5556 293.348 77.7119C292.906 77.8629 292.402 77.9383 291.836 77.9383ZM299.032 70.8955V77.7766H296.703V69.0277H298.886L299.032 70.8955ZM298.692 73.0949H298.062C298.062 72.448 298.145 71.8658 298.312 71.3484C298.479 70.8255 298.714 70.3807 299.016 70.0142C299.318 69.6422 299.676 69.3592 300.091 69.1652C300.512 68.9657 300.981 68.866 301.498 68.866C301.908 68.866 302.283 68.9253 302.622 69.0439C302.962 69.1625 303.253 69.3511 303.495 69.6099C303.743 69.8686 303.932 70.2109 304.061 70.6368C304.196 71.0627 304.264 71.5828 304.264 72.1974V77.7766H301.919V72.1893C301.919 71.8012 301.865 71.4993 301.757 71.2837C301.649 71.068 301.49 70.9171 301.28 70.8309C301.075 70.7392 300.822 70.6934 300.52 70.6934C300.207 70.6934 299.935 70.7554 299.703 70.8794C299.477 71.0034 299.288 71.1759 299.137 71.3969C298.992 71.6125 298.881 71.8658 298.806 72.1569C298.73 72.448 298.692 72.7607 298.692 73.0949ZM308.492 69.0277V77.7766H306.156V69.0277H308.492ZM306.01 66.7475C306.01 66.4079 306.129 66.1276 306.366 65.9066C306.603 65.6856 306.921 65.575 307.32 65.575C307.714 65.575 308.029 65.6856 308.266 65.9066C308.509 66.1276 308.63 66.4079 308.63 66.7475C308.63 67.0871 308.509 67.3674 308.266 67.5884C308.029 67.8094 307.714 67.9199 307.32 67.9199C306.921 67.9199 306.603 67.8094 306.366 67.5884C306.129 67.3674 306.01 67.0871 306.01 66.7475ZM312.697 70.8955V77.7766H310.368V69.0277H312.552L312.697 70.8955ZM312.358 73.0949H311.727C311.727 72.448 311.81 71.8658 311.977 71.3484C312.145 70.8255 312.379 70.3807 312.681 70.0142C312.983 69.6422 313.341 69.3592 313.756 69.1652C314.177 68.9657 314.646 68.866 315.163 68.866C315.573 68.866 315.948 68.9253 316.287 69.0439C316.627 69.1625 316.918 69.3511 317.161 69.6099C317.408 69.8686 317.597 70.2109 317.727 70.6368C317.861 71.0627 317.929 71.5828 317.929 72.1974V77.7766H315.584V72.1893C315.584 71.8012 315.53 71.4993 315.422 71.2837C315.314 71.068 315.155 70.9171 314.945 70.8309C314.74 70.7392 314.487 70.6934 314.185 70.6934C313.872 70.6934 313.6 70.7554 313.368 70.8794C313.142 71.0034 312.953 71.1759 312.802 71.3969C312.657 71.6125 312.546 71.8658 312.471 72.1569C312.395 72.448 312.358 72.7607 312.358 73.0949ZM325.238 69.0277H327.349V77.4855C327.349 78.2833 327.171 78.9598 326.815 79.5151C326.465 80.0757 325.974 80.4989 325.343 80.7846C324.713 81.0756 323.98 81.2212 323.144 81.2212C322.777 81.2212 322.389 81.1727 321.98 81.0756C321.575 80.9786 321.187 80.8277 320.815 80.6228C320.449 80.418 320.142 80.1592 319.894 79.8466L320.92 78.472C321.19 78.7846 321.503 79.0272 321.858 79.1997C322.214 79.3776 322.608 79.4666 323.039 79.4666C323.459 79.4666 323.815 79.3884 324.106 79.2321C324.397 79.0811 324.621 78.8574 324.777 78.5609C324.934 78.2698 325.012 77.9168 325.012 77.5017V71.0492L325.238 69.0277ZM319.352 73.5073V73.3375C319.352 72.669 319.433 72.0626 319.594 71.5182C319.761 70.9683 319.996 70.4966 320.298 70.1031C320.605 69.7096 320.977 69.4051 321.414 69.1894C321.85 68.9738 322.344 68.866 322.893 68.866C323.476 68.866 323.963 68.9738 324.357 69.1894C324.75 69.4051 325.074 69.7123 325.327 70.1112C325.581 70.5047 325.777 70.971 325.918 71.5101C326.063 72.0437 326.176 72.6286 326.257 73.2647V73.6367C326.176 74.2458 326.055 74.8118 325.893 75.3347C325.732 75.8576 325.519 76.3158 325.254 76.7093C324.99 77.0974 324.662 77.3993 324.268 77.6149C323.88 77.8305 323.416 77.9383 322.877 77.9383C322.338 77.9383 321.85 77.8278 321.414 77.6068C320.982 77.3858 320.613 77.0758 320.306 76.6769C319.999 76.278 319.761 75.8091 319.594 75.27C319.433 74.7309 319.352 74.1434 319.352 73.5073ZM321.681 73.3375V73.5073C321.681 73.8684 321.716 74.2054 321.786 74.518C321.856 74.8307 321.964 75.1083 322.109 75.3509C322.26 75.588 322.446 75.774 322.667 75.9088C322.893 76.0382 323.16 76.1028 323.467 76.1028C323.893 76.1028 324.241 76.0139 324.511 75.836C324.78 75.6527 324.982 75.4021 325.117 75.084C325.252 74.766 325.33 74.3994 325.351 73.9843V72.9251C325.341 72.5855 325.295 72.2809 325.214 72.0114C325.133 71.7365 325.02 71.502 324.874 71.3079C324.729 71.1139 324.54 70.9629 324.308 70.8551C324.077 70.7473 323.802 70.6934 323.484 70.6934C323.176 70.6934 322.91 70.7635 322.683 70.9036C322.462 71.0384 322.276 71.2244 322.125 71.4616C321.98 71.6987 321.869 71.979 321.794 72.3025C321.718 72.6205 321.681 72.9655 321.681 73.3375ZM333.89 75.3589C333.89 75.1918 333.842 75.0409 333.745 74.9061C333.648 74.7714 333.467 74.6474 333.203 74.5342C332.944 74.4156 332.569 74.3078 332.079 74.2107C331.637 74.1137 331.225 73.9924 330.842 73.8469C330.464 73.6959 330.136 73.5154 329.855 73.3051C329.58 73.0949 329.365 72.8469 329.208 72.5612C329.052 72.2701 328.974 71.9386 328.974 71.5667C328.974 71.2001 329.052 70.8551 329.208 70.5317C329.37 70.2082 329.599 69.9225 329.896 69.6746C330.198 69.4212 330.564 69.2245 330.995 69.0843C331.432 68.9388 331.923 68.866 332.467 68.866C333.227 68.866 333.879 68.9873 334.424 69.2299C334.974 69.4724 335.394 69.8066 335.685 70.2325C335.982 70.653 336.13 71.1327 336.13 71.6718H333.801C333.801 71.4454 333.753 71.2432 333.656 71.0653C333.564 70.8821 333.418 70.7392 333.219 70.6368C333.025 70.529 332.772 70.4751 332.459 70.4751C332.2 70.4751 331.977 70.5209 331.788 70.6125C331.599 70.6988 331.454 70.8174 331.351 70.9683C331.254 71.1139 331.206 71.2756 331.206 71.4535C331.206 71.5882 331.233 71.7095 331.287 71.8173C331.346 71.9198 331.44 72.0141 331.57 72.1003C331.699 72.1866 331.866 72.2674 332.071 72.3429C332.281 72.413 332.54 72.4777 332.847 72.537C333.478 72.6663 334.041 72.8362 334.537 73.0464C335.033 73.2512 335.426 73.5315 335.718 73.8873C336.009 74.2377 336.154 74.6986 336.154 75.27C336.154 75.6581 336.068 76.0139 335.895 76.3373C335.723 76.6608 335.475 76.9438 335.152 77.1863C334.828 77.4235 334.44 77.6095 333.987 77.7443C333.54 77.8736 333.036 77.9383 332.475 77.9383C331.661 77.9383 330.971 77.7928 330.405 77.5017C329.845 77.2106 329.419 76.8413 329.128 76.3939C328.842 75.9411 328.699 75.4775 328.699 75.0032H330.906C330.917 75.3212 330.998 75.5773 331.149 75.7713C331.305 75.9654 331.502 76.1055 331.739 76.1918C331.982 76.278 332.243 76.3212 332.524 76.3212C332.826 76.3212 333.076 76.2807 333.276 76.1999C333.475 76.1136 333.626 76.0004 333.728 75.8603C333.836 75.7147 333.89 75.5476 333.89 75.3589Z" fill="#040404"/>
<rect x="215.182" y="98.2622" width="203.45" height="52.0452" rx="4.73138" fill="#F2F2F2"/>
<rect x="231.741" y="107.725" width="54.4109" height="11.8285" rx="5.91423" fill="#D2D2D2"/>
<rect x="231.741" y="129.016" width="134.844" height="11.8285" rx="5.91423" fill="#D2D2D2"/>
<rect x="215.182" y="159.77" width="203.45" height="52.0452" rx="4.73138" fill="#A8A8A8"/>
<rect x="231.741" y="169.233" width="54.4109" height="11.8285" rx="5.91423" fill="#D2D2D2"/>
<rect x="231.741" y="190.524" width="134.844" height="11.8285" rx="5.91423" fill="#D2D2D2"/>
<rect x="215.182" y="221.278" width="203.45" height="52.0452" rx="4.73138" fill="#F2F2F2"/>
<rect x="231.741" y="230.741" width="54.4109" height="11.8285" rx="5.91423" fill="#D2D2D2"/>
<rect x="231.741" y="252.032" width="134.844" height="11.8285" rx="5.91423" fill="#D2D2D2"/>
<path d="M32.9485 155.751H34.1036C34.0666 156.192 33.9434 156.585 33.734 156.93C33.5245 157.271 33.2303 157.541 32.8514 157.738C32.4726 157.935 32.0121 158.034 31.4699 158.034C31.0541 158.034 30.6798 157.96 30.3471 157.812C30.0145 157.661 29.7295 157.449 29.4923 157.174C29.2552 156.897 29.0734 156.563 28.9471 156.172C28.8239 155.781 28.7623 155.343 28.7623 154.86V154.3C28.7623 153.817 28.8255 153.379 28.9517 152.988C29.0811 152.597 29.2659 152.263 29.5062 151.986C29.7465 151.705 30.0345 151.491 30.3702 151.343C30.7091 151.195 31.0895 151.122 31.5115 151.122C32.0475 151.122 32.5003 151.22 32.8699 151.417C33.2396 151.614 33.526 151.887 33.7293 152.235C33.9357 152.583 34.062 152.982 34.1082 153.432H32.9531C32.9223 153.142 32.8545 152.894 32.7498 152.688C32.6481 152.482 32.4972 152.324 32.297 152.217C32.0968 152.106 31.8349 152.05 31.5115 152.05C31.2466 152.05 31.0156 152.1 30.8184 152.198C30.6213 152.297 30.4565 152.441 30.324 152.632C30.1916 152.823 30.0915 153.059 30.0237 153.339C29.959 153.617 29.9267 153.934 29.9267 154.291V154.86C29.9267 155.198 29.9559 155.506 30.0145 155.784C30.0761 156.058 30.1685 156.293 30.2917 156.491C30.418 156.688 30.5782 156.84 30.7722 156.948C30.9663 157.056 31.1988 157.11 31.4699 157.11C31.7995 157.11 32.066 157.057 32.2693 156.953C32.4756 156.848 32.6312 156.695 32.7359 156.495C32.8437 156.292 32.9146 156.044 32.9485 155.751ZM34.8336 155.497V155.391C34.8336 155.03 34.886 154.696 34.9907 154.388C35.0955 154.077 35.2464 153.808 35.4435 153.58C35.6438 153.349 35.8871 153.17 36.1736 153.044C36.4631 152.914 36.7896 152.85 37.1531 152.85C37.5197 152.85 37.8462 152.914 38.1327 153.044C38.4222 153.17 38.6671 153.349 38.8673 153.58C39.0675 153.808 39.22 154.077 39.3248 154.388C39.4295 154.696 39.4818 155.03 39.4818 155.391V155.497C39.4818 155.858 39.4295 156.192 39.3248 156.5C39.22 156.808 39.0675 157.077 38.8673 157.308C38.6671 157.536 38.4238 157.715 38.1373 157.844C37.8508 157.971 37.5258 158.034 37.1624 158.034C36.7958 158.034 36.4677 157.971 36.1782 157.844C35.8917 157.715 35.6484 157.536 35.4482 157.308C35.2479 157.077 35.0955 156.808 34.9907 156.5C34.886 156.192 34.8336 155.858 34.8336 155.497ZM35.9472 155.391V155.497C35.9472 155.722 35.9703 155.935 36.0165 156.135C36.0627 156.335 36.1351 156.511 36.2336 156.662C36.3322 156.812 36.4585 156.931 36.6125 157.017C36.7665 157.104 36.9498 157.147 37.1624 157.147C37.3687 157.147 37.5474 157.104 37.6983 157.017C37.8524 156.931 37.9786 156.812 38.0772 156.662C38.1758 156.511 38.2482 156.335 38.2944 156.135C38.3437 155.935 38.3683 155.722 38.3683 155.497V155.391C38.3683 155.169 38.3437 154.96 38.2944 154.763C38.2482 154.562 38.1742 154.385 38.0726 154.231C37.974 154.077 37.8477 153.957 37.6937 153.871C37.5428 153.781 37.3626 153.737 37.1531 153.737C36.9437 153.737 36.7619 153.781 36.6079 153.871C36.457 153.957 36.3322 154.077 36.2336 154.231C36.1351 154.385 36.0627 154.562 36.0165 154.763C35.9703 154.96 35.9472 155.169 35.9472 155.391ZM41.5287 153.959V157.941H40.4152V152.942H41.464L41.5287 153.959ZM41.3485 155.257L40.9696 155.252C40.9696 154.907 41.0128 154.588 41.099 154.296C41.1853 154.003 41.3116 153.749 41.4779 153.533C41.6442 153.315 41.8506 153.147 42.097 153.03C42.3466 152.91 42.6346 152.85 42.9611 152.85C43.189 152.85 43.3969 152.884 43.5848 152.951C43.7758 153.016 43.9406 153.119 44.0792 153.261C44.2209 153.403 44.3287 153.584 44.4027 153.806C44.4797 154.028 44.5182 154.296 44.5182 154.61V157.941H43.4046V154.707C43.4046 154.464 43.3677 154.273 43.2938 154.134C43.2229 153.996 43.1197 153.897 42.9842 153.838C42.8517 153.777 42.6931 153.746 42.5083 153.746C42.2988 153.746 42.1201 153.786 41.9723 153.866C41.8275 153.946 41.7089 154.056 41.6165 154.194C41.5241 154.333 41.4563 154.493 41.4132 154.675C41.3701 154.856 41.3485 155.051 41.3485 155.257ZM44.4489 154.961L43.9268 155.077C43.9268 154.775 43.9683 154.49 44.0515 154.222C44.1378 153.951 44.2625 153.714 44.4258 153.51C44.5921 153.304 44.797 153.142 45.0403 153.025C45.2836 152.908 45.5624 152.85 45.8766 152.85C46.1323 152.85 46.3602 152.885 46.5604 152.956C46.7637 153.024 46.9362 153.131 47.0779 153.279C47.2196 153.427 47.3274 153.62 47.4014 153.857C47.4753 154.091 47.5123 154.374 47.5123 154.707V157.941H46.3941V154.702C46.3941 154.45 46.3571 154.254 46.2832 154.116C46.2124 153.977 46.1107 153.882 45.9783 153.829C45.8458 153.774 45.6872 153.746 45.5024 153.746C45.3299 153.746 45.1774 153.778 45.0449 153.843C44.9155 153.905 44.8062 153.992 44.7169 154.106C44.6275 154.217 44.5598 154.345 44.5136 154.49C44.4704 154.635 44.4489 154.792 44.4489 154.961ZM49.7763 153.903V159.864H48.6628V152.942H49.6885L49.7763 153.903ZM53.0338 155.396V155.493C53.0338 155.856 52.9906 156.193 52.9044 156.504C52.8212 156.812 52.6965 157.082 52.5301 157.313C52.3669 157.541 52.1651 157.718 51.9248 157.844C51.6846 157.971 51.4073 158.034 51.0931 158.034C50.782 158.034 50.5094 157.977 50.2753 157.863C50.0443 157.746 49.8487 157.581 49.6885 157.368C49.5283 157.156 49.399 156.906 49.3004 156.62C49.2049 156.33 49.1371 156.013 49.0971 155.668V155.294C49.1371 154.927 49.2049 154.595 49.3004 154.296C49.399 153.997 49.5283 153.74 49.6885 153.524C49.8487 153.309 50.0443 153.142 50.2753 153.025C50.5063 152.908 50.7759 152.85 51.0839 152.85C51.3981 152.85 51.6769 152.911 51.9202 153.034C52.1636 153.155 52.3684 153.327 52.5347 153.552C52.7011 153.774 52.8258 154.042 52.909 154.356C52.9922 154.667 53.0338 155.014 53.0338 155.396ZM51.9202 155.493V155.396C51.9202 155.164 51.8987 154.95 51.8555 154.753C51.8124 154.553 51.7446 154.377 51.6522 154.227C51.5598 154.076 51.4412 153.959 51.2964 153.875C51.1548 153.789 50.9838 153.746 50.7836 153.746C50.5864 153.746 50.417 153.78 50.2753 153.848C50.1336 153.912 50.015 154.003 49.9195 154.12C49.8241 154.237 49.7501 154.374 49.6978 154.531C49.6454 154.685 49.6084 154.853 49.5869 155.035V155.931C49.6238 156.153 49.687 156.357 49.7763 156.541C49.8656 156.726 49.9919 156.874 50.1552 156.985C50.3215 157.093 50.5341 157.147 50.7928 157.147C50.993 157.147 51.164 157.104 51.3057 157.017C51.4474 156.931 51.5629 156.812 51.6522 156.662C51.7446 156.508 51.8124 156.33 51.8555 156.13C51.8987 155.93 51.9202 155.717 51.9202 155.493ZM56.7995 156.939V154.555C56.7995 154.376 56.7671 154.222 56.7024 154.093C56.6377 153.963 56.5392 153.863 56.4067 153.792C56.2773 153.721 56.1141 153.686 55.9169 153.686C55.7352 153.686 55.5781 153.717 55.4456 153.778C55.3132 153.84 55.21 153.923 55.1361 154.028C55.0621 154.133 55.0252 154.251 55.0252 154.384H53.9163C53.9163 154.186 53.964 153.996 54.0595 153.811C54.155 153.626 54.2936 153.461 54.4753 153.316C54.6571 153.172 54.8742 153.058 55.1268 152.974C55.3794 152.891 55.6628 152.85 55.977 152.85C56.3528 152.85 56.6855 152.913 56.975 153.039C57.2677 153.165 57.4971 153.356 57.6635 153.612C57.8329 153.865 57.9176 154.182 57.9176 154.564V156.786C57.9176 157.014 57.933 157.219 57.9638 157.401C57.9977 157.579 58.0454 157.735 58.1071 157.867V157.941H56.9658C56.9134 157.821 56.8718 157.669 56.841 157.484C56.8133 157.296 56.7995 157.114 56.7995 156.939ZM56.9612 154.901L56.9704 155.59H56.1711C55.9647 155.59 55.7829 155.61 55.6258 155.65C55.4688 155.687 55.3378 155.742 55.2331 155.816C55.1284 155.89 55.0498 155.979 54.9975 156.084C54.9451 156.189 54.9189 156.307 54.9189 156.44C54.9189 156.572 54.9497 156.694 55.0113 156.805C55.0729 156.913 55.1623 156.997 55.2793 157.059C55.3994 157.12 55.5442 157.151 55.7136 157.151C55.9416 157.151 56.1403 157.105 56.3097 157.013C56.4822 156.917 56.6177 156.802 56.7163 156.666C56.8149 156.528 56.8672 156.397 56.8734 156.273L57.2338 156.768C57.1968 156.894 57.1337 157.03 57.0443 157.174C56.955 157.319 56.838 157.458 56.6932 157.59C56.5515 157.72 56.3805 157.826 56.1803 157.909C55.9832 157.992 55.7552 158.034 55.4965 158.034C55.17 158.034 54.8789 157.969 54.6232 157.84C54.3675 157.707 54.1673 157.53 54.0225 157.308C53.8778 157.084 53.8054 156.829 53.8054 156.546C53.8054 156.281 53.8547 156.047 53.9532 155.844C54.0549 155.637 54.2027 155.465 54.3968 155.326C54.5939 155.188 54.8342 155.083 55.1176 155.012C55.401 154.938 55.7244 154.901 56.0879 154.901H56.9612ZM60.1863 154.009V157.941H59.0727V152.942H60.1216L60.1863 154.009ZM59.9876 155.257L59.6272 155.252C59.6303 154.898 59.6796 154.573 59.7751 154.277C59.8736 153.982 60.0092 153.728 60.1817 153.515C60.3572 153.302 60.5667 153.139 60.81 153.025C61.0534 152.908 61.3245 152.85 61.6232 152.85C61.8635 152.85 62.0807 152.884 62.2747 152.951C62.4719 153.016 62.6398 153.122 62.7784 153.27C62.9201 153.418 63.0279 153.61 63.1018 153.848C63.1757 154.082 63.2127 154.37 63.2127 154.712V157.941H62.0945V154.707C62.0945 154.467 62.0591 154.277 61.9883 154.139C61.9205 153.997 61.8204 153.897 61.6879 153.838C61.5586 153.777 61.3968 153.746 61.2028 153.746C61.0118 153.746 60.8408 153.786 60.6899 153.866C60.539 153.946 60.4111 154.056 60.3064 154.194C60.2048 154.333 60.1262 154.493 60.0708 154.675C60.0153 154.856 59.9876 155.051 59.9876 155.257ZM65.8002 157.396L67.1586 152.942H68.3507L66.3454 158.704C66.2992 158.827 66.2391 158.961 66.1652 159.106C66.0913 159.251 65.9942 159.388 65.8741 159.517C65.757 159.649 65.6107 159.756 65.4352 159.836C65.2596 159.919 65.047 159.961 64.7975 159.961C64.699 159.961 64.6035 159.951 64.5111 159.933C64.4217 159.917 64.337 159.9 64.2569 159.882L64.2523 159.032C64.2831 159.035 64.3201 159.038 64.3632 159.041C64.4094 159.044 64.4464 159.046 64.4741 159.046C64.6589 159.046 64.8129 159.023 64.9361 158.976C65.0594 158.933 65.1595 158.862 65.2365 158.764C65.3166 158.665 65.3843 158.533 65.4398 158.366L65.8002 157.396ZM65.0332 152.942L66.2206 156.685L66.4193 157.858L65.6477 158.057L63.8318 152.942H65.0332ZM76.7923 151.214V157.941H75.6326L72.6154 153.122V157.941H71.4557V151.214H72.6154L75.6418 156.042V151.214H76.7923ZM80.8815 156.939V154.555C80.8815 154.376 80.8491 154.222 80.7844 154.093C80.7197 153.963 80.6212 153.863 80.4887 153.792C80.3593 153.721 80.1961 153.686 79.9989 153.686C79.8172 153.686 79.6601 153.717 79.5277 153.778C79.3952 153.84 79.292 153.923 79.2181 154.028C79.1442 154.133 79.1072 154.251 79.1072 154.384H77.9983C77.9983 154.186 78.046 153.996 78.1415 153.811C78.237 153.626 78.3756 153.461 78.5574 153.316C78.7391 153.172 78.9563 153.058 79.2088 152.974C79.4614 152.891 79.7448 152.85 80.059 152.85C80.4348 152.85 80.7675 152.913 81.057 153.039C81.3497 153.165 81.5792 153.356 81.7455 153.612C81.9149 153.865 81.9996 154.182 81.9996 154.564V156.786C81.9996 157.014 82.015 157.219 82.0458 157.401C82.0797 157.579 82.1275 157.735 82.1891 157.867V157.941H81.0478C80.9954 157.821 80.9538 157.669 80.923 157.484C80.8953 157.296 80.8815 157.114 80.8815 156.939ZM81.0432 154.901L81.0524 155.59H80.2531C80.0467 155.59 79.865 155.61 79.7079 155.65C79.5508 155.687 79.4198 155.742 79.3151 155.816C79.2104 155.89 79.1318 155.979 79.0795 156.084C79.0271 156.189 79.0009 156.307 79.0009 156.44C79.0009 156.572 79.0317 156.694 79.0933 156.805C79.1549 156.913 79.2443 156.997 79.3613 157.059C79.4815 157.12 79.6262 157.151 79.7956 157.151C80.0236 157.151 80.2223 157.105 80.3917 157.013C80.5642 156.917 80.6997 156.802 80.7983 156.666C80.8969 156.528 80.9492 156.397 80.9554 156.273L81.3158 156.768C81.2788 156.894 81.2157 157.03 81.1263 157.174C81.037 157.319 80.92 157.458 80.7752 157.59C80.6335 157.72 80.4625 157.826 80.2623 157.909C80.0652 157.992 79.8372 158.034 79.5785 158.034C79.252 158.034 78.9609 157.969 78.7052 157.84C78.4495 157.707 78.2493 157.53 78.1045 157.308C77.9598 157.084 77.8874 156.829 77.8874 156.546C77.8874 156.281 77.9367 156.047 78.0352 155.844C78.1369 155.637 78.2847 155.465 78.4788 155.326C78.6759 155.188 78.9162 155.083 79.1996 155.012C79.483 154.938 79.8064 154.901 80.1699 154.901H81.0432ZM84.2775 153.959V157.941H83.164V152.942H84.2128L84.2775 153.959ZM84.0973 155.257L83.7184 155.252C83.7184 154.907 83.7616 154.588 83.8478 154.296C83.9341 154.003 84.0604 153.749 84.2267 153.533C84.393 153.315 84.5994 153.147 84.8458 153.03C85.0953 152.91 85.3834 152.85 85.7099 152.85C85.9378 152.85 86.1457 152.884 86.3336 152.951C86.5246 153.016 86.6894 153.119 86.828 153.261C86.9697 153.403 87.0775 153.584 87.1515 153.806C87.2285 154.028 87.267 154.296 87.267 154.61V157.941H86.1534V154.707C86.1534 154.464 86.1165 154.273 86.0425 154.134C85.9717 153.996 85.8685 153.897 85.733 153.838C85.6005 153.777 85.4419 153.746 85.2571 153.746C85.0476 153.746 84.8689 153.786 84.7211 153.866C84.5763 153.946 84.4577 154.056 84.3653 154.194C84.2729 154.333 84.2051 154.493 84.162 154.675C84.1189 154.856 84.0973 155.051 84.0973 155.257ZM87.1977 154.961L86.6756 155.077C86.6756 154.775 86.7171 154.49 86.8003 154.222C86.8866 153.951 87.0113 153.714 87.1746 153.51C87.3409 153.304 87.5457 153.142 87.7891 153.025C88.0324 152.908 88.3112 152.85 88.6254 152.85C88.8811 152.85 89.109 152.885 89.3092 152.956C89.5125 153.024 89.685 153.131 89.8267 153.279C89.9684 153.427 90.0762 153.62 90.1502 153.857C90.2241 154.091 90.2611 154.374 90.2611 154.707V157.941H89.1429V154.702C89.1429 154.45 89.1059 154.254 89.032 154.116C88.9612 153.977 88.8595 153.882 88.7271 153.829C88.5946 153.774 88.436 153.746 88.2511 153.746C88.0786 153.746 87.9262 153.778 87.7937 153.843C87.6643 153.905 87.555 153.992 87.4657 154.106C87.3763 154.217 87.3086 154.345 87.2624 154.49C87.2192 154.635 87.1977 154.792 87.1977 154.961ZM93.6109 158.034C93.2413 158.034 92.9071 157.974 92.6083 157.854C92.3126 157.73 92.06 157.559 91.8505 157.341C91.6441 157.122 91.4855 156.865 91.3746 156.569C91.2637 156.273 91.2083 155.955 91.2083 155.613V155.428C91.2083 155.037 91.2652 154.682 91.3792 154.365C91.4932 154.048 91.6518 153.777 91.8551 153.552C92.0584 153.324 92.2987 153.15 92.5759 153.03C92.8532 152.91 93.1535 152.85 93.4769 152.85C93.8342 152.85 94.1469 152.91 94.4149 153.03C94.6829 153.15 94.9047 153.319 95.0802 153.538C95.2589 153.754 95.3913 154.011 95.4776 154.31C95.5669 154.608 95.6116 154.938 95.6116 155.298V155.774H91.7489V154.975H94.5119V154.887C94.5058 154.687 94.4657 154.499 94.3918 154.324C94.3209 154.148 94.2116 154.006 94.0637 153.898C93.9159 153.791 93.7187 153.737 93.4723 153.737C93.2875 153.737 93.1227 153.777 92.9779 153.857C92.8362 153.934 92.7176 154.046 92.6221 154.194C92.5266 154.342 92.4527 154.521 92.4003 154.73C92.3511 154.937 92.3264 155.169 92.3264 155.428V155.613C92.3264 155.831 92.3557 156.035 92.4142 156.223C92.4758 156.407 92.5651 156.569 92.6822 156.708C92.7992 156.846 92.9409 156.956 93.1073 157.036C93.2736 157.113 93.4631 157.151 93.6756 157.151C93.9436 157.151 94.1823 157.097 94.3918 156.99C94.6012 156.882 94.783 156.729 94.937 156.532L95.5238 157.1C95.416 157.258 95.2758 157.409 95.1033 157.553C94.9308 157.695 94.7198 157.81 94.4703 157.9C94.2239 157.989 93.9374 158.034 93.6109 158.034Z" fill="#040404"/>
<rect x="111.09" y="147.941" width="54.4109" height="11.8285" rx="5.91423" fill="#C2C4C6"/>
<path d="M33.1887 184.582V185.501H29.8112V184.582H33.1887ZM30.1346 178.774V185.501H28.9748V178.774H30.1346ZM33.7617 183.057V182.951C33.7617 182.59 33.814 182.256 33.9188 181.948C34.0235 181.637 34.1744 181.367 34.3716 181.139C34.5718 180.908 34.8152 180.73 35.1016 180.603C35.3912 180.474 35.7177 180.409 36.0812 180.409C36.4477 180.409 36.7742 180.474 37.0607 180.603C37.3503 180.73 37.5951 180.908 37.7954 181.139C37.9956 181.367 38.1481 181.637 38.2528 181.948C38.3575 182.256 38.4099 182.59 38.4099 182.951V183.057C38.4099 183.417 38.3575 183.752 38.2528 184.06C38.1481 184.368 37.9956 184.637 37.7954 184.868C37.5951 185.096 37.3518 185.275 37.0653 185.404C36.7789 185.53 36.4539 185.594 36.0904 185.594C35.7238 185.594 35.3958 185.53 35.1062 185.404C34.8198 185.275 34.5764 185.096 34.3762 184.868C34.176 184.637 34.0235 184.368 33.9188 184.06C33.814 183.752 33.7617 183.417 33.7617 183.057ZM34.8752 182.951V183.057C34.8752 183.282 34.8983 183.494 34.9445 183.695C34.9907 183.895 35.0631 184.07 35.1617 184.221C35.2603 184.372 35.3866 184.491 35.5406 184.577C35.6946 184.663 35.8779 184.706 36.0904 184.706C36.2968 184.706 36.4754 184.663 36.6264 184.577C36.7804 184.491 36.9067 184.372 37.0053 184.221C37.1038 184.07 37.1762 183.895 37.2224 183.695C37.2717 183.494 37.2964 183.282 37.2964 183.057V182.951C37.2964 182.729 37.2717 182.519 37.2224 182.322C37.1762 182.122 37.1023 181.945 37.0006 181.791C36.9021 181.637 36.7758 181.517 36.6218 181.431C36.4708 181.341 36.2906 181.297 36.0812 181.297C35.8717 181.297 35.69 181.341 35.5359 181.431C35.385 181.517 35.2603 181.637 35.1617 181.791C35.0631 181.945 34.9907 182.122 34.9445 182.322C34.8983 182.519 34.8752 182.729 34.8752 182.951ZM41.3855 184.706C41.5672 184.706 41.7305 184.671 41.8753 184.6C42.0231 184.526 42.1417 184.425 42.231 184.295C42.3235 184.166 42.3743 184.017 42.3835 183.847H43.4324C43.4262 184.171 43.3307 184.465 43.1459 184.73C42.9611 184.995 42.7162 185.206 42.4112 185.363C42.1063 185.517 41.769 185.594 41.3994 185.594C41.0174 185.594 40.6847 185.529 40.4013 185.4C40.1179 185.267 39.8823 185.085 39.6944 184.854C39.5065 184.623 39.3648 184.357 39.2693 184.055C39.1769 183.753 39.1307 183.43 39.1307 183.085V182.923C39.1307 182.578 39.1769 182.255 39.2693 181.953C39.3648 181.648 39.5065 181.38 39.6944 181.149C39.8823 180.918 40.1179 180.737 40.4013 180.608C40.6847 180.476 41.0159 180.409 41.3947 180.409C41.7952 180.409 42.1463 180.49 42.4482 180.65C42.7501 180.807 42.9873 181.027 43.1598 181.31C43.3353 181.591 43.4262 181.917 43.4324 182.29H42.3835C42.3743 182.105 42.3281 181.939 42.2449 181.791C42.1648 181.64 42.0508 181.52 41.903 181.431C41.7582 181.341 41.5842 181.297 41.3809 181.297C41.156 181.297 40.9696 181.343 40.8218 181.435C40.6739 181.525 40.5584 181.648 40.4753 181.805C40.3921 181.959 40.332 182.133 40.2951 182.327C40.2612 182.518 40.2442 182.717 40.2442 182.923V183.085C40.2442 183.291 40.2612 183.491 40.2951 183.685C40.3289 183.879 40.3875 184.053 40.4706 184.207C40.5569 184.358 40.6739 184.48 40.8218 184.573C40.9696 184.662 41.1575 184.706 41.3855 184.706ZM47.1057 184.499V182.114C47.1057 181.936 47.0733 181.782 47.0086 181.652C46.9439 181.523 46.8454 181.423 46.7129 181.352C46.5835 181.281 46.4203 181.246 46.2231 181.246C46.0414 181.246 45.8843 181.277 45.7519 181.338C45.6194 181.4 45.5162 181.483 45.4423 181.588C45.3684 181.692 45.3314 181.811 45.3314 181.943H44.2225C44.2225 181.746 44.2702 181.555 44.3657 181.371C44.4612 181.186 44.5998 181.021 44.7816 180.876C44.9633 180.731 45.1805 180.617 45.433 180.534C45.6856 180.451 45.969 180.409 46.2832 180.409C46.659 180.409 46.9917 180.473 47.2812 180.599C47.5739 180.725 47.8034 180.916 47.9697 181.172C48.1391 181.424 48.2238 181.742 48.2238 182.124V184.346C48.2238 184.574 48.2392 184.779 48.27 184.961C48.3039 185.139 48.3517 185.295 48.4133 185.427V185.501H47.272C47.2196 185.381 47.178 185.229 47.1472 185.044C47.1195 184.856 47.1057 184.674 47.1057 184.499ZM47.2674 182.461L47.2766 183.149H46.4773C46.2709 183.149 46.0892 183.169 45.9321 183.209C45.775 183.246 45.644 183.302 45.5393 183.376C45.4346 183.45 45.356 183.539 45.3037 183.644C45.2513 183.749 45.2251 183.867 45.2251 184C45.2251 184.132 45.2559 184.254 45.3175 184.365C45.3791 184.472 45.4685 184.557 45.5855 184.619C45.7057 184.68 45.8504 184.711 46.0198 184.711C46.2478 184.711 46.4465 184.665 46.6159 184.573C46.7884 184.477 46.9239 184.361 47.0225 184.226C47.1211 184.087 47.1734 183.956 47.1796 183.833L47.54 184.328C47.503 184.454 47.4399 184.589 47.3505 184.734C47.2612 184.879 47.1442 185.018 46.9994 185.15C46.8577 185.279 46.6867 185.386 46.4865 185.469C46.2894 185.552 46.0614 185.594 45.8027 185.594C45.4762 185.594 45.1851 185.529 44.9294 185.4C44.6737 185.267 44.4735 185.09 44.3287 184.868C44.184 184.643 44.1116 184.389 44.1116 184.106C44.1116 183.841 44.1609 183.607 44.2594 183.404C44.3611 183.197 44.5089 183.025 44.703 182.886C44.9001 182.747 45.1404 182.643 45.4238 182.572C45.7072 182.498 46.0306 182.461 46.3941 182.461H47.2674ZM51.6799 180.502V181.315H48.8614V180.502H51.6799ZM49.6747 179.277H50.7882V184.12C50.7882 184.274 50.8098 184.392 50.8529 184.475C50.8991 184.556 50.9622 184.609 51.0423 184.637C51.1224 184.665 51.2164 184.679 51.3242 184.679C51.4012 184.679 51.4751 184.674 51.546 184.665C51.6168 184.656 51.6738 184.646 51.7169 184.637L51.7215 185.487C51.6291 185.515 51.5213 185.54 51.3981 185.561C51.278 185.583 51.1394 185.594 50.9823 185.594C50.7266 185.594 50.5002 185.549 50.303 185.46C50.1059 185.367 49.9519 185.218 49.841 185.011C49.7301 184.805 49.6747 184.531 49.6747 184.189V179.277ZM53.7314 180.502V185.501H52.6133V180.502H53.7314ZM52.5394 179.19C52.5394 179.02 52.5948 178.88 52.7057 178.769C52.8197 178.655 52.9768 178.598 53.177 178.598C53.3741 178.598 53.5297 178.655 53.6437 178.769C53.7576 178.88 53.8146 179.02 53.8146 179.19C53.8146 179.356 53.7576 179.495 53.6437 179.605C53.5297 179.716 53.3741 179.772 53.177 179.772C52.9768 179.772 52.8197 179.716 52.7057 179.605C52.5948 179.495 52.5394 179.356 52.5394 179.19ZM54.7387 183.057V182.951C54.7387 182.59 54.7911 182.256 54.8958 181.948C55.0005 181.637 55.1515 181.367 55.3486 181.139C55.5488 180.908 55.7922 180.73 56.0787 180.603C56.3682 180.474 56.6947 180.409 57.0582 180.409C57.4248 180.409 57.7513 180.474 58.0377 180.603C58.3273 180.73 58.5722 180.908 58.7724 181.139C58.9726 181.367 59.1251 181.637 59.2298 181.948C59.3346 182.256 59.3869 182.59 59.3869 182.951V183.057C59.3869 183.417 59.3346 183.752 59.2298 184.06C59.1251 184.368 58.9726 184.637 58.7724 184.868C58.5722 185.096 58.3288 185.275 58.0424 185.404C57.7559 185.53 57.4309 185.594 57.0674 185.594C56.7009 185.594 56.3728 185.53 56.0833 185.404C55.7968 185.275 55.5535 185.096 55.3532 184.868C55.153 184.637 55.0005 184.368 54.8958 184.06C54.7911 183.752 54.7387 183.417 54.7387 183.057ZM55.8523 182.951V183.057C55.8523 183.282 55.8754 183.494 55.9216 183.695C55.9678 183.895 56.0402 184.07 56.1387 184.221C56.2373 184.372 56.3636 184.491 56.5176 184.577C56.6716 184.663 56.8549 184.706 57.0674 184.706C57.2738 184.706 57.4525 184.663 57.6034 184.577C57.7574 184.491 57.8837 184.372 57.9823 184.221C58.0809 184.07 58.1533 183.895 58.1995 183.695C58.2487 183.494 58.2734 183.282 58.2734 183.057V182.951C58.2734 182.729 58.2487 182.519 58.1995 182.322C58.1533 182.122 58.0793 181.945 57.9777 181.791C57.8791 181.637 57.7528 181.517 57.5988 181.431C57.4479 181.341 57.2677 181.297 57.0582 181.297C56.8487 181.297 56.667 181.341 56.513 181.431C56.362 181.517 56.2373 181.637 56.1387 181.791C56.0402 181.945 55.9678 182.122 55.9216 182.322C55.8754 182.519 55.8523 182.729 55.8523 182.951ZM61.4246 181.569V185.501H60.311V180.502H61.3599L61.4246 181.569ZM61.2259 182.817L60.8655 182.812C60.8686 182.458 60.9179 182.133 61.0133 181.837C61.1119 181.541 61.2474 181.287 61.4199 181.075C61.5955 180.862 61.805 180.699 62.0483 180.585C62.2917 180.468 62.5627 180.409 62.8615 180.409C63.1018 180.409 63.319 180.443 63.513 180.511C63.7102 180.576 63.878 180.682 64.0167 180.83C64.1584 180.978 64.2662 181.17 64.3401 181.407C64.414 181.642 64.451 181.93 64.451 182.271V185.501H63.3328V182.267C63.3328 182.027 63.2974 181.837 63.2266 181.699C63.1588 181.557 63.0587 181.457 62.9262 181.398C62.7969 181.337 62.6351 181.306 62.4411 181.306C62.2501 181.306 62.0791 181.346 61.9282 181.426C61.7773 181.506 61.6494 181.615 61.5447 181.754C61.4431 181.893 61.3645 182.053 61.3091 182.235C61.2536 182.416 61.2259 182.61 61.2259 182.817Z" fill="#040404"/>
<rect x="111.09" y="176.501" width="54.4109" height="11.8285" rx="5.91423" fill="#C2C4C6"/>
<path d="M30.9293 213.89H29.4923L29.5016 212.97H30.9293C31.3452 212.97 31.6932 212.879 31.9735 212.698C32.2569 212.516 32.4695 212.256 32.6112 211.917C32.756 211.578 32.8283 211.174 32.8283 210.706V210.341C32.8283 209.978 32.7868 209.656 32.7036 209.375C32.6235 209.095 32.5034 208.859 32.3432 208.668C32.1861 208.478 31.992 208.333 31.761 208.234C31.5331 208.136 31.2697 208.086 30.9709 208.086H29.4646V207.162H30.9709C31.4175 207.162 31.8257 207.238 32.1953 207.389C32.565 207.536 32.8838 207.751 33.1518 208.031C33.4228 208.311 33.6308 208.647 33.7755 209.038C33.9203 209.429 33.9927 209.867 33.9927 210.35V210.706C33.9927 211.19 33.9203 211.627 33.7755 212.018C33.6308 212.41 33.4228 212.745 33.1518 213.026C32.8807 213.303 32.5573 213.517 32.1815 213.668C31.8088 213.816 31.3914 213.89 30.9293 213.89ZM30.1346 207.162V213.89H28.9748V207.162H30.1346ZM37.2502 213.982C36.8805 213.982 36.5463 213.922 36.2475 213.802C35.9518 213.679 35.6992 213.508 35.4897 213.289C35.2834 213.07 35.1247 212.813 35.0138 212.517C34.9029 212.222 34.8475 211.903 34.8475 211.561V211.376C34.8475 210.985 34.9045 210.631 35.0185 210.313C35.1324 209.996 35.2911 209.725 35.4944 209.5C35.6977 209.272 35.9379 209.098 36.2152 208.978C36.4924 208.858 36.7927 208.798 37.1162 208.798C37.4735 208.798 37.7861 208.858 38.0541 208.978C38.3221 209.098 38.5439 209.268 38.7195 209.486C38.8981 209.702 39.0306 209.959 39.1168 210.258C39.2062 210.557 39.2508 210.886 39.2508 211.247V211.723H35.3881V210.923H38.1511V210.836C38.145 210.635 38.1049 210.447 38.031 210.272C37.9602 210.096 37.8508 209.955 37.703 209.847C37.5551 209.739 37.358 209.685 37.1115 209.685C36.9267 209.685 36.7619 209.725 36.6171 209.805C36.4754 209.882 36.3569 209.995 36.2614 210.142C36.1659 210.29 36.0919 210.469 36.0396 210.678C35.9903 210.885 35.9657 211.117 35.9657 211.376V211.561C35.9657 211.78 35.9949 211.983 36.0534 212.171C36.115 212.356 36.2044 212.517 36.3214 212.656C36.4385 212.795 36.5802 212.904 36.7465 212.984C36.9129 213.061 37.1023 213.1 37.3148 213.1C37.5828 213.1 37.8216 213.046 38.031 212.938C38.2405 212.83 38.4222 212.678 38.5762 212.48L39.163 213.049C39.0552 213.206 38.9151 213.357 38.7426 213.502C38.5701 213.643 38.3591 213.759 38.1096 213.848C37.8631 213.937 37.5767 213.982 37.2502 213.982ZM41.2376 209.851V215.812H40.1241V208.89H41.1498L41.2376 209.851ZM44.4951 211.344V211.441C44.4951 211.804 44.452 212.142 44.3657 212.453C44.2825 212.761 44.1578 213.03 43.9914 213.261C43.8282 213.489 43.6264 213.666 43.3862 213.793C43.1459 213.919 42.8687 213.982 42.5545 213.982C42.2434 213.982 41.9708 213.925 41.7366 213.811C41.5056 213.694 41.31 213.529 41.1498 213.317C40.9897 213.104 40.8603 212.855 40.7617 212.568C40.6662 212.279 40.5985 211.961 40.5584 211.616V211.242C40.5985 210.876 40.6662 210.543 40.7617 210.244C40.8603 209.945 40.9897 209.688 41.1498 209.472C41.31 209.257 41.5056 209.09 41.7366 208.973C41.9677 208.856 42.2372 208.798 42.5452 208.798C42.8594 208.798 43.1382 208.859 43.3815 208.983C43.6249 209.103 43.8297 209.275 43.9961 209.5C44.1624 209.722 44.2872 209.99 44.3703 210.304C44.4535 210.615 44.4951 210.962 44.4951 211.344ZM43.3815 211.441V211.344C43.3815 211.113 43.36 210.899 43.3169 210.702C43.2737 210.501 43.206 210.326 43.1136 210.175C43.0211 210.024 42.9026 209.907 42.7578 209.824C42.6161 209.737 42.4451 209.694 42.2449 209.694C42.0478 209.694 41.8783 209.728 41.7366 209.796C41.595 209.861 41.4764 209.951 41.3809 210.069C41.2854 210.186 41.2115 210.323 41.1591 210.48C41.1067 210.634 41.0698 210.802 41.0482 210.983V211.88C41.0852 212.102 41.1483 212.305 41.2376 212.49C41.327 212.674 41.4533 212.822 41.6165 212.933C41.7829 213.041 41.9954 213.095 42.2541 213.095C42.4544 213.095 42.6253 213.052 42.767 212.966C42.9087 212.879 43.0242 212.761 43.1136 212.61C43.206 212.456 43.2737 212.279 43.3169 212.078C43.36 211.878 43.3815 211.666 43.3815 211.441ZM48.2608 212.887V210.503C48.2608 210.324 48.2284 210.17 48.1638 210.041C48.0991 209.911 48.0005 209.811 47.868 209.74C47.7387 209.67 47.5754 209.634 47.3783 209.634C47.1965 209.634 47.0394 209.665 46.907 209.727C46.7745 209.788 46.6713 209.871 46.5974 209.976C46.5235 210.081 46.4865 210.199 46.4865 210.332H45.3776C45.3776 210.135 45.4253 209.944 45.5208 209.759C45.6163 209.574 45.7549 209.409 45.9367 209.265C46.1184 209.12 46.3356 209.006 46.5882 208.923C46.8408 208.839 47.1241 208.798 47.4383 208.798C47.8141 208.798 48.1468 208.861 48.4364 208.987C48.729 209.114 48.9585 209.305 49.1248 209.56C49.2942 209.813 49.3789 210.13 49.3789 210.512V212.735C49.3789 212.962 49.3943 213.167 49.4251 213.349C49.459 213.528 49.5068 213.683 49.5684 213.816V213.89H48.4271C48.3748 213.77 48.3332 213.617 48.3024 213.432C48.2746 213.244 48.2608 213.063 48.2608 212.887ZM48.4225 210.849L48.4317 211.538H47.6324C47.426 211.538 47.2443 211.558 47.0872 211.598C46.9301 211.635 46.7992 211.69 46.6944 211.764C46.5897 211.838 46.5112 211.927 46.4588 212.032C46.4064 212.137 46.3802 212.256 46.3802 212.388C46.3802 212.52 46.411 212.642 46.4727 212.753C46.5343 212.861 46.6236 212.946 46.7406 213.007C46.8608 213.069 47.0056 213.1 47.175 213.1C47.4029 213.1 47.6016 213.053 47.771 212.961C47.9435 212.865 48.079 212.75 48.1776 212.614C48.2762 212.476 48.3286 212.345 48.3347 212.222L48.6951 212.716C48.6581 212.842 48.595 212.978 48.5057 213.123C48.4163 213.267 48.2993 213.406 48.1545 213.538C48.0128 213.668 47.8419 213.774 47.6416 213.857C47.4445 213.94 47.2166 213.982 46.9578 213.982C46.6313 213.982 46.3402 213.917 46.0845 213.788C45.8289 213.656 45.6286 213.478 45.4839 213.257C45.3391 213.032 45.2667 212.778 45.2667 212.494C45.2667 212.229 45.316 211.995 45.4146 211.792C45.5162 211.586 45.6641 211.413 45.8581 211.274C46.0553 211.136 46.2955 211.031 46.5789 210.96C46.8623 210.886 47.1857 210.849 47.5492 210.849H48.4225ZM51.6615 209.842V213.89H50.5479V208.89H51.6106L51.6615 209.842ZM53.1909 208.858L53.1816 209.893C53.1138 209.881 53.0399 209.871 52.9598 209.865C52.8828 209.859 52.8058 209.856 52.7288 209.856C52.5378 209.856 52.3699 209.884 52.2252 209.939C52.0804 209.991 51.9587 210.069 51.8601 210.17C51.7647 210.269 51.6907 210.389 51.6384 210.531C51.586 210.672 51.5552 210.831 51.546 211.006L51.2918 211.025C51.2918 210.711 51.3226 210.42 51.3842 210.152C51.4458 209.884 51.5383 209.648 51.6615 209.445C51.7878 209.241 51.9449 209.083 52.1328 208.969C52.3237 208.855 52.544 208.798 52.7935 208.798C52.8613 208.798 52.9336 208.804 53.0107 208.816C53.0907 208.829 53.1508 208.843 53.1909 208.858ZM56.4113 208.89V209.703H53.5928V208.89H56.4113ZM54.406 207.666H55.5196V212.508C55.5196 212.662 55.5411 212.781 55.5843 212.864C55.6305 212.944 55.6936 212.998 55.7737 213.026C55.8538 213.053 55.9477 213.067 56.0556 213.067C56.1326 213.067 56.2065 213.063 56.2773 213.053C56.3482 213.044 56.4052 213.035 56.4483 213.026L56.4529 213.876C56.3605 213.904 56.2527 213.928 56.1295 213.95C56.0093 213.971 55.8707 213.982 55.7136 213.982C55.458 213.982 55.2316 213.937 55.0344 213.848C54.8373 213.756 54.6833 213.606 54.5724 213.4C54.4615 213.193 54.406 212.919 54.406 212.577V207.666ZM58.3843 209.907V213.89H57.2707V208.89H58.3196L58.3843 209.907ZM58.2041 211.205L57.8252 211.201C57.8252 210.856 57.8683 210.537 57.9546 210.244C58.0408 209.951 58.1671 209.697 58.3335 209.482C58.4998 209.263 58.7062 209.095 58.9526 208.978C59.2021 208.858 59.4901 208.798 59.8166 208.798C60.0446 208.798 60.2525 208.832 60.4404 208.9C60.6314 208.964 60.7962 209.067 60.9348 209.209C61.0765 209.351 61.1843 209.533 61.2582 209.754C61.3352 209.976 61.3737 210.244 61.3737 210.558V213.89H60.2602V210.655C60.2602 210.412 60.2232 210.221 60.1493 210.082C60.0785 209.944 59.9753 209.845 59.8397 209.787C59.7073 209.725 59.5486 209.694 59.3638 209.694C59.1544 209.694 58.9757 209.734 58.8279 209.814C58.6831 209.894 58.5645 210.004 58.4721 210.142C58.3797 210.281 58.3119 210.441 58.2688 210.623C58.2256 210.805 58.2041 210.999 58.2041 211.205ZM61.3044 210.909L60.7823 211.025C60.7823 210.723 60.8239 210.438 60.9071 210.17C60.9933 209.899 61.1181 209.662 61.2813 209.459C61.4477 209.252 61.6525 209.09 61.8959 208.973C62.1392 208.856 62.418 208.798 62.7322 208.798C62.9878 208.798 63.2158 208.833 63.416 208.904C63.6193 208.972 63.7918 209.08 63.9335 209.228C64.0752 209.375 64.183 209.568 64.2569 209.805C64.3309 210.039 64.3678 210.323 64.3678 210.655V213.89H63.2497V210.651C63.2497 210.398 63.2127 210.202 63.1388 210.064C63.0679 209.925 62.9663 209.83 62.8338 209.777C62.7014 209.722 62.5427 209.694 62.3579 209.694C62.1854 209.694 62.0329 209.727 61.9005 209.791C61.7711 209.853 61.6618 209.941 61.5724 210.055C61.4831 210.166 61.4153 210.293 61.3691 210.438C61.326 210.583 61.3044 210.74 61.3044 210.909ZM67.7177 213.982C67.348 213.982 67.0138 213.922 66.715 213.802C66.4193 213.679 66.1667 213.508 65.9573 213.289C65.7509 213.07 65.5923 212.813 65.4814 212.517C65.3705 212.222 65.315 211.903 65.315 211.561V211.376C65.315 210.985 65.372 210.631 65.486 210.313C65.6 209.996 65.7586 209.725 65.9619 209.5C66.1652 209.272 66.4055 209.098 66.6827 208.978C66.9599 208.858 67.2602 208.798 67.5837 208.798C67.941 208.798 68.2537 208.858 68.5216 208.978C68.7896 209.098 69.0114 209.268 69.187 209.486C69.3657 209.702 69.4981 209.959 69.5844 210.258C69.6737 210.557 69.7184 210.886 69.7184 211.247V211.723H65.8556V210.923H68.6187V210.836C68.6125 210.635 68.5725 210.447 68.4985 210.272C68.4277 210.096 68.3183 209.955 68.1705 209.847C68.0226 209.739 67.8255 209.685 67.5791 209.685C67.3942 209.685 67.2294 209.725 67.0847 209.805C66.943 209.882 66.8244 209.995 66.7289 210.142C66.6334 210.29 66.5595 210.469 66.5071 210.678C66.4578 210.885 66.4332 211.117 66.4332 211.376V211.561C66.4332 211.78 66.4624 211.983 66.521 212.171C66.5826 212.356 66.6719 212.517 66.789 212.656C66.906 212.795 67.0477 212.904 67.214 212.984C67.3804 213.061 67.5698 213.1 67.7824 213.1C68.0504 213.1 68.2891 213.046 68.4985 212.938C68.708 212.83 68.8897 212.678 69.0438 212.48L69.6306 213.049C69.5227 213.206 69.3826 213.357 69.2101 213.502C69.0376 213.643 68.8266 213.759 68.5771 213.848C68.3307 213.937 68.0442 213.982 67.7177 213.982ZM71.6913 209.958V213.89H70.5778V208.89H71.6266L71.6913 209.958ZM71.4926 211.205L71.1322 211.201C71.1353 210.846 71.1846 210.521 71.2801 210.226C71.3786 209.93 71.5142 209.676 71.6867 209.463C71.8623 209.251 72.0717 209.087 72.3151 208.973C72.5584 208.856 72.8295 208.798 73.1283 208.798C73.3685 208.798 73.5857 208.832 73.7798 208.9C73.9769 208.964 74.1448 209.07 74.2834 209.218C74.4251 209.366 74.5329 209.559 74.6068 209.796C74.6808 210.03 74.7177 210.318 74.7177 210.66V213.89H73.5996V210.655C73.5996 210.415 73.5641 210.226 73.4933 210.087C73.4255 209.945 73.3254 209.845 73.193 209.787C73.0636 209.725 72.9019 209.694 72.7078 209.694C72.5168 209.694 72.3459 209.734 72.1949 209.814C72.044 209.894 71.9162 210.004 71.8114 210.142C71.7098 210.281 71.6312 210.441 71.5758 210.623C71.5203 210.805 71.4926 210.999 71.4926 211.205ZM78.1461 208.89V209.703H75.3276V208.89H78.1461ZM76.1408 207.666H77.2544V212.508C77.2544 212.662 77.2759 212.781 77.3191 212.864C77.3653 212.944 77.4284 212.998 77.5085 213.026C77.5886 213.053 77.6825 213.067 77.7904 213.067C77.8674 213.067 77.9413 213.063 78.0121 213.053C78.083 213.044 78.14 213.035 78.1831 213.026L78.1877 213.876C78.0953 213.904 77.9875 213.928 77.8643 213.95C77.7441 213.971 77.6055 213.982 77.4484 213.982C77.1928 213.982 76.9664 213.937 76.7692 213.848C76.5721 213.756 76.4181 213.606 76.3072 213.4C76.1963 213.193 76.1408 212.919 76.1408 212.577V207.666Z" fill="#040404"/>
<rect x="111.09" y="204.89" width="54.4109" height="11.8285" rx="5.91423" fill="#C2C4C6"/>
<path d="M32.9485 241.088H34.1036C34.0666 241.528 33.9434 241.921 33.734 242.266C33.5245 242.608 33.2303 242.877 32.8514 243.075C32.4726 243.272 32.0121 243.37 31.4699 243.37C31.0541 243.37 30.6798 243.296 30.3471 243.148C30.0145 242.998 29.7295 242.785 29.4923 242.511C29.2552 242.234 29.0734 241.899 28.9471 241.508C28.8239 241.117 28.7623 240.68 28.7623 240.196V239.637C28.7623 239.153 28.8255 238.716 28.9517 238.325C29.0811 237.933 29.2659 237.599 29.5062 237.322C29.7465 237.042 30.0345 236.828 30.3702 236.68C30.7091 236.532 31.0895 236.458 31.5115 236.458C32.0475 236.458 32.5003 236.557 32.8699 236.754C33.2396 236.951 33.526 237.223 33.7293 237.572C33.9357 237.92 34.062 238.319 34.1082 238.768H32.9531C32.9223 238.479 32.8545 238.231 32.7498 238.024C32.6481 237.818 32.4972 237.661 32.297 237.553C32.0968 237.442 31.8349 237.387 31.5115 237.387C31.2466 237.387 31.0156 237.436 30.8184 237.535C30.6213 237.633 30.4565 237.778 30.324 237.969C30.1916 238.16 30.0915 238.396 30.0237 238.676C29.959 238.953 29.9267 239.27 29.9267 239.628V240.196C29.9267 240.535 29.9559 240.843 30.0145 241.12C30.0761 241.394 30.1685 241.63 30.2917 241.827C30.418 242.024 30.5782 242.177 30.7722 242.284C30.9663 242.392 31.1988 242.446 31.4699 242.446C31.7995 242.446 32.066 242.394 32.2693 242.289C32.4756 242.184 32.6312 242.032 32.7359 241.832C32.8437 241.628 32.9146 241.38 32.9485 241.088ZM37.8647 242.275V239.891C37.8647 239.712 37.8323 239.558 37.7676 239.429C37.703 239.3 37.6044 239.199 37.4719 239.129C37.3426 239.058 37.1793 239.022 36.9822 239.022C36.8004 239.022 36.6433 239.053 36.5109 239.115C36.3784 239.176 36.2752 239.26 36.2013 239.364C36.1274 239.469 36.0904 239.588 36.0904 239.72H34.9815C34.9815 239.523 35.0292 239.332 35.1247 239.147C35.2202 238.962 35.3588 238.797 35.5406 238.653C35.7223 238.508 35.9395 238.394 36.1921 238.311C36.4446 238.228 36.728 238.186 37.0422 238.186C37.418 238.186 37.7507 238.249 38.0403 238.375C38.3329 238.502 38.5624 238.693 38.7287 238.948C38.8981 239.201 38.9828 239.518 38.9828 239.9V242.123C38.9828 242.351 38.9982 242.555 39.029 242.737C39.0629 242.916 39.1107 243.071 39.1723 243.204V243.278H38.031C37.9786 243.158 37.9371 243.005 37.9063 242.82C37.8785 242.633 37.8647 242.451 37.8647 242.275ZM38.0264 240.238L38.0356 240.926H37.2363C37.0299 240.926 36.8482 240.946 36.6911 240.986C36.534 241.023 36.4031 241.078 36.2983 241.152C36.1936 241.226 36.115 241.316 36.0627 241.42C36.0103 241.525 35.9841 241.644 35.9841 241.776C35.9841 241.909 36.0149 242.03 36.0765 242.141C36.1382 242.249 36.2275 242.334 36.3445 242.395C36.4647 242.457 36.6094 242.488 36.7789 242.488C37.0068 242.488 37.2055 242.442 37.3749 242.349C37.5474 242.254 37.6829 242.138 37.7815 242.003C37.8801 241.864 37.9324 241.733 37.9386 241.61L38.299 242.104C38.262 242.231 38.1989 242.366 38.1096 242.511C38.0202 242.656 37.9032 242.794 37.7584 242.927C37.6167 243.056 37.4458 243.162 37.2455 243.245C37.0484 243.329 36.8204 243.37 36.5617 243.37C36.2352 243.37 35.9441 243.306 35.6884 243.176C35.4328 243.044 35.2325 242.867 35.0878 242.645C34.943 242.42 34.8706 242.166 34.8706 241.882C34.8706 241.618 34.9199 241.383 35.0185 241.18C35.1201 240.974 35.268 240.801 35.462 240.663C35.6592 240.524 35.8994 240.419 36.1828 240.348C36.4662 240.275 36.7896 240.238 37.1531 240.238H38.0264ZM42.439 238.278V239.092H39.6205V238.278H42.439ZM40.4337 237.054H41.5472V241.896C41.5472 242.05 41.5688 242.169 41.6119 242.252C41.6581 242.332 41.7212 242.386 41.8013 242.414C41.8814 242.442 41.9754 242.455 42.0832 242.455C42.1602 242.455 42.2341 242.451 42.305 242.442C42.3758 242.432 42.4328 242.423 42.4759 242.414L42.4805 243.264C42.3881 243.292 42.2803 243.316 42.1571 243.338C42.037 243.359 41.8984 243.37 41.7413 243.37C41.4856 243.37 41.2592 243.326 41.0621 243.236C40.8649 243.144 40.7109 242.994 40.6 242.788C40.4891 242.582 40.4337 242.308 40.4337 241.966V237.054ZM45.5024 243.37C45.1327 243.37 44.7985 243.31 44.4997 243.19C44.204 243.067 43.9514 242.896 43.7419 242.677C43.5356 242.458 43.3769 242.201 43.266 241.906C43.1551 241.61 43.0997 241.291 43.0997 240.949V240.764C43.0997 240.373 43.1567 240.019 43.2707 239.702C43.3846 239.384 43.5433 239.113 43.7466 238.888C43.9499 238.66 44.1901 238.486 44.4674 238.366C44.7446 238.246 45.0449 238.186 45.3684 238.186C45.7257 238.186 46.0383 238.246 46.3063 238.366C46.5743 238.486 46.7961 238.656 46.9717 238.875C47.1503 239.09 47.2828 239.347 47.369 239.646C47.4584 239.945 47.503 240.275 47.503 240.635V241.111H43.6403V240.311H46.4033V240.224C46.3972 240.023 46.3571 239.836 46.2832 239.66C46.2124 239.484 46.103 239.343 45.9552 239.235C45.8073 239.127 45.6102 239.073 45.3637 239.073C45.1789 239.073 45.0141 239.113 44.8693 239.193C44.7276 239.27 44.6091 239.383 44.5136 239.531C44.4181 239.678 44.3441 239.857 44.2918 240.067C44.2425 240.273 44.2179 240.506 44.2179 240.764V240.949C44.2179 241.168 44.2471 241.371 44.3056 241.559C44.3672 241.744 44.4566 241.906 44.5736 242.044C44.6907 242.183 44.8324 242.292 44.9987 242.372C45.1651 242.449 45.3545 242.488 45.567 242.488C45.835 242.488 46.0738 242.434 46.2832 242.326C46.4927 242.218 46.6744 242.066 46.8284 241.869L47.4152 242.437C47.3074 242.594 47.1673 242.745 46.9948 242.89C46.8223 243.031 46.6113 243.147 46.3618 243.236C46.1153 243.326 45.8289 243.37 45.5024 243.37ZM51.5737 238.278H52.5856V243.139C52.5856 243.589 52.4901 243.971 52.2991 244.285C52.1081 244.599 51.8417 244.838 51.4997 245.001C51.1578 245.168 50.762 245.251 50.3123 245.251C50.1213 245.251 49.9088 245.223 49.6747 245.168C49.4436 245.112 49.2188 245.023 49.0001 244.9C48.7844 244.779 48.6042 244.621 48.4595 244.424L48.9816 243.768C49.1602 243.98 49.3574 244.136 49.573 244.234C49.7886 244.333 50.015 244.382 50.2522 244.382C50.5079 244.382 50.725 244.334 50.9037 244.239C51.0854 244.146 51.2256 244.009 51.3242 243.828C51.4227 243.646 51.472 243.424 51.472 243.162V239.41L51.5737 238.278ZM48.1776 240.834V240.737C48.1776 240.358 48.2238 240.013 48.3162 239.702C48.4086 239.387 48.5411 239.118 48.7136 238.893C48.8861 238.665 49.0956 238.491 49.342 238.371C49.5884 238.248 49.8672 238.186 50.1783 238.186C50.5017 238.186 50.7774 238.245 51.0054 238.362C51.2364 238.479 51.4289 238.647 51.5829 238.865C51.7369 239.081 51.8571 239.34 51.9433 239.642C52.0326 239.94 52.0989 240.273 52.142 240.64V240.949C52.102 241.306 52.0342 241.633 51.9387 241.929C51.8432 242.224 51.7169 242.48 51.5598 242.696C51.4027 242.911 51.2087 243.078 50.9776 243.195C50.7497 243.312 50.4802 243.37 50.169 243.37C49.8641 243.37 49.5884 243.307 49.342 243.181C49.0986 243.055 48.8892 242.877 48.7136 242.649C48.5411 242.422 48.4086 242.154 48.3162 241.845C48.2238 241.534 48.1776 241.197 48.1776 240.834ZM49.2912 240.737V240.834C49.2912 241.062 49.3127 241.274 49.3558 241.471C49.402 241.668 49.4714 241.842 49.5638 241.993C49.6593 242.141 49.7794 242.258 49.9242 242.344C50.072 242.428 50.2461 242.469 50.4463 242.469C50.7081 242.469 50.9222 242.414 51.0885 242.303C51.2579 242.192 51.3873 242.043 51.4766 241.855C51.5691 241.664 51.6337 241.451 51.6707 241.217V240.381C51.6522 240.199 51.6137 240.03 51.5552 239.873C51.4997 239.715 51.4243 239.578 51.3288 239.461C51.2333 239.341 51.1132 239.249 50.9684 239.184C50.8236 239.116 50.6527 239.082 50.4555 239.082C50.2553 239.082 50.0813 239.126 49.9334 239.212C49.7855 239.298 49.6639 239.417 49.5684 239.568C49.476 239.719 49.4067 239.894 49.3605 240.094C49.3143 240.295 49.2912 240.509 49.2912 240.737ZM53.5281 240.834V240.727C53.5281 240.367 53.5805 240.033 53.6852 239.725C53.79 239.414 53.9409 239.144 54.1381 238.916C54.3383 238.685 54.5816 238.506 54.8681 238.38C55.1576 238.251 55.4842 238.186 55.8476 238.186C56.2142 238.186 56.5407 238.251 56.8272 238.38C57.1167 238.506 57.3616 238.685 57.5618 238.916C57.7621 239.144 57.9145 239.414 58.0193 239.725C58.124 240.033 58.1764 240.367 58.1764 240.727V240.834C58.1764 241.194 58.124 241.528 58.0193 241.836C57.9145 242.144 57.7621 242.414 57.5618 242.645C57.3616 242.873 57.1183 243.051 56.8318 243.181C56.5453 243.307 56.2204 243.37 55.8569 243.37C55.4903 243.37 55.1623 243.307 54.8727 243.181C54.5862 243.051 54.3429 242.873 54.1427 242.645C53.9425 242.414 53.79 242.144 53.6852 241.836C53.5805 241.528 53.5281 241.194 53.5281 240.834ZM54.6417 240.727V240.834C54.6417 241.058 54.6648 241.271 54.711 241.471C54.7572 241.671 54.8296 241.847 54.9282 241.998C55.0267 242.149 55.153 242.267 55.307 242.354C55.4611 242.44 55.6443 242.483 55.8569 242.483C56.0633 242.483 56.2419 242.44 56.3929 242.354C56.5469 242.267 56.6732 242.149 56.7717 241.998C56.8703 241.847 56.9427 241.671 56.9889 241.471C57.0382 241.271 57.0628 241.058 57.0628 240.834V240.727C57.0628 240.506 57.0382 240.296 56.9889 240.099C56.9427 239.899 56.8688 239.722 56.7671 239.568C56.6685 239.414 56.5422 239.293 56.3882 239.207C56.2373 239.118 56.0571 239.073 55.8476 239.073C55.6382 239.073 55.4564 239.118 55.3024 239.207C55.1515 239.293 55.0267 239.414 54.9282 239.568C54.8296 239.722 54.7572 239.899 54.711 240.099C54.6648 240.296 54.6417 240.506 54.6417 240.727ZM60.2279 239.23V243.278H59.1143V238.278H60.177L60.2279 239.23ZM61.7572 238.246L61.748 239.281C61.6802 239.269 61.6063 239.26 61.5262 239.253C61.4492 239.247 61.3722 239.244 61.2952 239.244C61.1042 239.244 60.9363 239.272 60.7916 239.327C60.6468 239.38 60.5251 239.457 60.4265 239.558C60.3311 239.657 60.2571 239.777 60.2048 239.919C60.1524 240.06 60.1216 240.219 60.1123 240.395L59.8582 240.413C59.8582 240.099 59.889 239.808 59.9506 239.54C60.0122 239.272 60.1046 239.036 60.2279 238.833C60.3542 238.63 60.5113 238.471 60.6992 238.357C60.8901 238.243 61.1104 238.186 61.3599 238.186C61.4276 238.186 61.5 238.192 61.577 238.205C61.6571 238.217 61.7172 238.231 61.7572 238.246ZM63.9889 242.733L65.3474 238.278H66.5395L64.5342 244.04C64.488 244.163 64.4279 244.297 64.354 244.442C64.28 244.587 64.183 244.724 64.0629 244.853C63.9458 244.986 63.7995 245.092 63.6239 245.172C63.4483 245.255 63.2358 245.297 62.9863 245.297C62.8877 245.297 62.7922 245.288 62.6998 245.269C62.6105 245.254 62.5258 245.237 62.4457 245.218L62.4411 244.368C62.4719 244.371 62.5088 244.374 62.552 244.378C62.5982 244.381 62.6351 244.382 62.6629 244.382C62.8477 244.382 63.0017 244.359 63.1249 244.313C63.2481 244.27 63.3482 244.199 63.4252 244.1C63.5053 244.002 63.5731 243.869 63.6285 243.703L63.9889 242.733ZM63.2219 238.278L64.4094 242.021L64.6081 243.195L63.8365 243.393L62.0206 238.278H63.2219Z" fill="#040404"/>
<rect x="111.09" y="233.278" width="54.4109" height="11.8285" rx="5.91423" fill="#C2C4C6"/>
<rect x="373.682" y="62.7766" width="44.1596" height="18.9255" rx="9.32694" fill="#ED1A34"/>
<path d="M389.823 69.342L387.679 75.5618H386.382L389.083 68.3858H389.911L389.823 69.342ZM391.617 75.5618L389.468 69.342L389.374 68.3858H390.207L392.918 75.5618H391.617ZM391.513 72.9004V73.8811H387.61V72.9004H391.513ZM396.856 74.4578V67.9916H398.048V75.5618H396.969L396.856 74.4578ZM393.386 72.9546V72.8511C393.386 72.4469 393.434 72.0789 393.529 71.7471C393.624 71.4119 393.762 71.1245 393.943 70.8846C394.124 70.6415 394.344 70.4558 394.603 70.3277C394.863 70.1962 395.155 70.1305 395.481 70.1305C395.803 70.1305 396.085 70.193 396.328 70.3178C396.571 70.4427 396.778 70.6217 396.949 70.855C397.12 71.085 397.256 71.361 397.358 71.683C397.46 72.0017 397.532 72.3566 397.575 72.7476V73.0778C397.532 73.4589 397.46 73.8072 397.358 74.1226C397.256 74.4381 397.12 74.7108 396.949 74.9408C396.778 75.1708 396.57 75.3482 396.323 75.4731C396.08 75.5979 395.796 75.6603 395.471 75.6603C395.149 75.6603 394.858 75.593 394.598 75.4583C394.342 75.3236 394.124 75.1346 393.943 74.8915C393.762 74.6483 393.624 74.3625 393.529 74.0339C393.434 73.7021 393.386 73.3423 393.386 72.9546ZM394.574 72.8511V72.9546C394.574 73.1977 394.595 73.4244 394.638 73.6347C394.684 73.845 394.754 74.0306 394.85 74.1916C394.945 74.3494 395.068 74.4742 395.219 74.5662C395.374 74.6549 395.558 74.6993 395.771 74.6993C396.041 74.6993 396.263 74.6401 396.437 74.5218C396.611 74.4036 396.747 74.2442 396.846 74.0438C396.948 73.8401 397.017 73.6134 397.053 73.3636V72.4716C397.033 72.2777 396.992 72.097 396.93 71.9294C396.87 71.7619 396.79 71.6157 396.688 71.4908C396.586 71.3627 396.46 71.2641 396.309 71.1951C396.161 71.1228 395.985 71.0867 395.781 71.0867C395.564 71.0867 395.38 71.1327 395.229 71.2247C395.078 71.3167 394.953 71.4432 394.855 71.6042C394.759 71.7652 394.689 71.9524 394.643 72.166C394.597 72.3796 394.574 72.6079 394.574 72.8511ZM402.543 74.4578V67.9916H403.736V75.5618H402.656L402.543 74.4578ZM399.073 72.9546V72.8511C399.073 72.4469 399.121 72.0789 399.216 71.7471C399.312 71.4119 399.45 71.1245 399.63 70.8846C399.811 70.6415 400.031 70.4558 400.291 70.3277C400.55 70.1962 400.843 70.1305 401.168 70.1305C401.49 70.1305 401.773 70.193 402.016 70.3178C402.259 70.4427 402.466 70.6217 402.637 70.855C402.808 71.085 402.944 71.361 403.046 71.683C403.148 72.0017 403.22 72.3566 403.263 72.7476V73.0778C403.22 73.4589 403.148 73.8072 403.046 74.1226C402.944 74.4381 402.808 74.7108 402.637 74.9408C402.466 75.1708 402.257 75.3482 402.011 75.4731C401.768 75.5979 401.483 75.6603 401.158 75.6603C400.836 75.6603 400.545 75.593 400.286 75.4583C400.03 75.3236 399.811 75.1346 399.63 74.8915C399.45 74.6483 399.312 74.3625 399.216 74.0339C399.121 73.7021 399.073 73.3423 399.073 72.9546ZM400.261 72.8511V72.9546C400.261 73.1977 400.283 73.4244 400.325 73.6347C400.371 73.845 400.442 74.0306 400.537 74.1916C400.633 74.3494 400.756 74.4742 400.907 74.5662C401.061 74.6549 401.245 74.6993 401.459 74.6993C401.728 74.6993 401.95 74.6401 402.124 74.5218C402.298 74.4036 402.435 74.2442 402.533 74.0438C402.635 73.8401 402.704 73.6134 402.74 73.3636V72.4716C402.721 72.2777 402.679 72.097 402.617 71.9294C402.558 71.7619 402.477 71.6157 402.376 71.4908C402.274 71.3627 402.147 71.2641 401.996 71.1951C401.848 71.1228 401.672 71.0867 401.469 71.0867C401.252 71.0867 401.068 71.1327 400.917 71.2247C400.766 71.3167 400.641 71.4432 400.542 71.6042C400.447 71.7652 400.376 71.9524 400.33 72.166C400.284 72.3796 400.261 72.6079 400.261 72.8511Z" fill="white"/>
<circle cx="95.3868" cy="88.7992" r="30.754" fill="#FFDD00"/>
<path d="M82.5006 103.093C81.8942 103.093 81.3636 102.875 80.9088 102.437C80.454 101.999 80.2266 101.489 80.2266 100.905V82.9222C80.2266 82.3385 80.454 81.8279 80.9088 81.3902C81.3636 80.9524 81.8942 80.7336 82.5006 80.7336H89.7018V77.5602C89.7018 76.9765 89.9292 76.4659 90.384 76.0282C90.8389 75.5904 91.3695 75.3716 91.9759 75.3716H98.7981C99.4045 75.3716 99.9351 75.5904 100.39 76.0282C100.845 76.4659 101.072 76.9765 101.072 77.5602V80.7336H108.273C108.88 80.7336 109.41 80.9524 109.865 81.3902C110.32 81.8279 110.547 82.3385 110.547 82.9222V100.905C110.547 101.489 110.32 101.999 109.865 102.437C109.41 102.875 108.88 103.093 108.273 103.093H82.5006ZM91.9759 80.7336H98.7981V77.5602H91.9759V80.7336ZM82.5006 100.905H108.273V82.9222H82.5006V100.905ZM82.5006 100.905V82.9222V100.905Z" fill="#040404"/>
<path d="M37.7074 18.6422H39.5559L43.0301 27.9095L46.496 18.6422H48.3445L43.7563 30.6575H42.2874L37.7074 18.6422ZM36.8657 18.6422H38.6234L38.9287 26.6634V30.6575H36.8657V18.6422ZM47.4286 18.6422H49.1945V30.6575H47.1232V26.6634L47.4286 18.6422ZM56.4813 20.2431L52.8915 30.6575H50.7212L55.2434 18.6422H56.6298L56.4813 20.2431ZM59.4851 30.6575L55.8871 20.2431L55.7303 18.6422H57.1249L61.6637 30.6575H59.4851ZM59.3118 26.2013V27.8435H52.776V26.2013H59.3118ZM64.585 18.6422L67.1349 23.0242L69.6848 18.6422H72.0697L68.4387 24.5921L72.1605 30.6575H69.7509L67.1349 26.193L64.5189 30.6575H62.101L65.831 24.5921L62.1918 18.6422H64.585ZM82.8389 27.0512V18.6422H84.902V27.0512C84.902 27.849 84.7314 28.5284 84.3903 29.0895C84.0492 29.6507 83.5843 30.0798 82.9957 30.3769C82.407 30.674 81.7386 30.8225 80.9904 30.8225C80.2257 30.8225 79.5463 30.6932 78.9521 30.4347C78.3634 30.1761 77.9013 29.78 77.5657 29.2463C77.2301 28.7127 77.0623 28.036 77.0623 27.2163H79.1419C79.1419 27.6894 79.2162 28.0718 79.3647 28.3633C79.5187 28.6494 79.7333 28.8585 80.0084 28.9905C80.289 29.1171 80.6163 29.1803 80.9904 29.1803C81.348 29.1803 81.6643 29.1005 81.9394 28.941C82.22 28.776 82.44 28.5366 82.5996 28.2231C82.7591 27.904 82.8389 27.5134 82.8389 27.0512ZM86.7092 26.292V26.1022C86.7092 25.4586 86.8027 24.8616 86.9898 24.3115C87.1768 23.7558 87.4464 23.2745 87.7985 22.8674C88.1561 22.4547 88.5907 22.1357 89.1023 21.9101C89.6195 21.679 90.2026 21.5635 90.8518 21.5635C91.5065 21.5635 92.0897 21.679 92.6013 21.9101C93.1184 22.1357 93.5558 22.4547 93.9134 22.8674C94.271 23.2745 94.5433 23.7558 94.7304 24.3115C94.9174 24.8616 95.0109 25.4586 95.0109 26.1022V26.292C95.0109 26.9357 94.9174 27.5326 94.7304 28.0828C94.5433 28.6329 94.271 29.1143 93.9134 29.5269C93.5558 29.934 93.1212 30.2531 92.6095 30.4842C92.0979 30.7097 91.5175 30.8225 90.8683 30.8225C90.2136 30.8225 89.6277 30.7097 89.1106 30.4842C88.599 30.2531 88.1643 29.934 87.8067 29.5269C87.4492 29.1143 87.1768 28.6329 86.9898 28.0828C86.8027 27.5326 86.7092 26.9357 86.7092 26.292ZM88.698 26.1022V26.292C88.698 26.6936 88.7392 27.0732 88.8218 27.4308C88.9043 27.7884 89.0336 28.102 89.2096 28.3716C89.3857 28.6412 89.6112 28.853 89.8863 29.007C90.1614 29.1611 90.4887 29.2381 90.8683 29.2381C91.2369 29.2381 91.556 29.1611 91.8256 29.007C92.1007 28.853 92.3262 28.6412 92.5023 28.3716C92.6783 28.102 92.8076 27.7884 92.8901 27.4308C92.9781 27.0732 93.0222 26.6936 93.0222 26.292V26.1022C93.0222 25.7061 92.9781 25.332 92.8901 24.9799C92.8076 24.6223 92.6756 24.306 92.494 24.0309C92.318 23.7558 92.0924 23.5413 91.8173 23.3872C91.5478 23.2277 91.2259 23.1479 90.8518 23.1479C90.4777 23.1479 90.1531 23.2277 89.8781 23.3872C89.6085 23.5413 89.3857 23.7558 89.2096 24.0309C89.0336 24.306 88.9043 24.6223 88.8218 24.9799C88.7392 25.332 88.698 25.7061 88.698 26.1022ZM96.6862 17.982H98.6749V28.7512L98.4851 30.6575H96.6862V17.982ZM104.501 26.1105V26.2838C104.501 26.944 104.427 27.5519 104.278 28.1075C104.135 28.6577 103.915 29.1363 103.618 29.5434C103.326 29.9505 102.963 30.2669 102.529 30.4924C102.1 30.7125 101.602 30.8225 101.035 30.8225C100.479 30.8225 99.9953 30.718 99.5827 30.5089C99.1701 30.2999 98.8235 30.0028 98.5429 29.6177C98.2678 29.2326 98.045 28.7732 97.8745 28.2396C97.7039 27.7059 97.5829 27.1173 97.5114 26.4736V25.9207C97.5829 25.2715 97.7039 24.6829 97.8745 24.1547C98.045 23.6211 98.2678 23.1617 98.5429 22.7766C98.8235 22.386 99.1673 22.0861 99.5744 21.8771C99.987 21.668 100.468 21.5635 101.019 21.5635C101.591 21.5635 102.094 21.6735 102.529 21.8936C102.969 22.1137 103.335 22.4272 103.626 22.8344C103.918 23.236 104.135 23.7146 104.278 24.2702C104.427 24.8259 104.501 25.4393 104.501 26.1105ZM102.512 26.2838V26.1105C102.512 25.7089 102.479 25.332 102.413 24.9799C102.347 24.6223 102.237 24.3087 102.083 24.0392C101.935 23.7696 101.731 23.5578 101.472 23.4038C101.219 23.2442 100.903 23.1644 100.523 23.1644C100.171 23.1644 99.8688 23.225 99.6157 23.346C99.3626 23.467 99.1508 23.6321 98.9803 23.8411C98.8097 24.0502 98.6749 24.2922 98.5759 24.5673C98.4824 24.8424 98.4191 25.1395 98.3861 25.4586V26.9522C98.4356 27.3648 98.5402 27.7444 98.6997 28.091C98.8647 28.4321 99.0958 28.7072 99.3929 28.9162C99.69 29.1198 100.072 29.2216 100.54 29.2216C100.909 29.2216 101.219 29.1473 101.472 28.9988C101.726 28.8502 101.926 28.6439 102.075 28.3799C102.229 28.1103 102.339 27.7967 102.405 27.4391C102.476 27.0815 102.512 26.6964 102.512 26.2838ZM115.097 25.2275H112.035L112.019 23.7173H114.693C115.144 23.7173 115.526 23.6513 115.84 23.5193C116.159 23.3817 116.401 23.1864 116.566 22.9334C116.731 22.6748 116.813 22.364 116.813 22.0009C116.813 21.5993 116.736 21.2719 116.582 21.0189C116.428 20.7658 116.192 20.5815 115.873 20.466C115.559 20.3504 115.157 20.2927 114.668 20.2927H112.662V30.6575H110.591V18.6422H114.668C115.328 18.6422 115.917 18.7055 116.434 18.832C116.956 18.9585 117.399 19.1566 117.762 19.4262C118.131 19.6902 118.409 20.0258 118.596 20.4329C118.788 20.8401 118.885 21.3242 118.885 21.8853C118.885 22.3805 118.766 22.8344 118.53 23.247C118.293 23.6541 117.944 23.9869 117.482 24.2455C117.02 24.5041 116.445 24.6581 115.757 24.7076L115.097 25.2275ZM115.006 30.6575H111.383L112.316 29.0153H115.006C115.474 29.0153 115.864 28.9383 116.178 28.7842C116.492 28.6247 116.725 28.4074 116.879 28.1323C117.039 27.8517 117.119 27.5244 117.119 27.1503C117.119 26.7597 117.05 26.4213 116.912 26.1352C116.775 25.8437 116.558 25.6209 116.26 25.4668C115.963 25.3073 115.576 25.2275 115.097 25.2275H112.77L112.786 23.7173H115.815L116.285 24.2867C116.945 24.3087 117.487 24.4545 117.911 24.7241C118.34 24.9937 118.659 25.343 118.868 25.7721C119.077 26.2013 119.182 26.6634 119.182 27.1585C119.182 27.9232 119.014 28.5642 118.678 29.0813C118.348 29.5984 117.872 29.9918 117.251 30.2614C116.629 30.5254 115.881 30.6575 115.006 30.6575ZM120.692 26.292V26.1022C120.692 25.4586 120.785 24.8616 120.972 24.3115C121.16 23.7558 121.429 23.2745 121.781 22.8674C122.139 22.4547 122.573 22.1357 123.085 21.9101C123.602 21.679 124.185 21.5635 124.835 21.5635C125.489 21.5635 126.072 21.679 126.584 21.9101C127.101 22.1357 127.539 22.4547 127.896 22.8674C128.254 23.2745 128.526 23.7558 128.713 24.3115C128.9 24.8616 128.994 25.4586 128.994 26.1022V26.292C128.994 26.9357 128.9 27.5326 128.713 28.0828C128.526 28.6329 128.254 29.1143 127.896 29.5269C127.539 29.934 127.104 30.2531 126.592 30.4842C126.081 30.7097 125.5 30.8225 124.851 30.8225C124.196 30.8225 123.61 30.7097 123.093 30.4842C122.582 30.2531 122.147 29.934 121.789 29.5269C121.432 29.1143 121.16 28.6329 120.972 28.0828C120.785 27.5326 120.692 26.9357 120.692 26.292ZM122.681 26.1022V26.292C122.681 26.6936 122.722 27.0732 122.804 27.4308C122.887 27.7884 123.016 28.102 123.192 28.3716C123.368 28.6412 123.594 28.853 123.869 29.007C124.144 29.1611 124.471 29.2381 124.851 29.2381C125.22 29.2381 125.539 29.1611 125.808 29.007C126.083 28.853 126.309 28.6412 126.485 28.3716C126.661 28.102 126.79 27.7884 126.873 27.4308C126.961 27.0732 127.005 26.6936 127.005 26.292V26.1022C127.005 25.7061 126.961 25.332 126.873 24.9799C126.79 24.6223 126.658 24.306 126.477 24.0309C126.301 23.7558 126.075 23.5413 125.8 23.3872C125.53 23.2277 125.209 23.1479 124.835 23.1479C124.46 23.1479 124.136 23.2277 123.861 23.3872C123.591 23.5413 123.368 23.7558 123.192 24.0309C123.016 24.306 122.887 24.6223 122.804 24.9799C122.722 25.332 122.681 25.7061 122.681 26.1022ZM135.694 28.8667V24.6086C135.694 24.2895 135.637 24.0144 135.521 23.7834C135.406 23.5523 135.23 23.3735 134.993 23.247C134.762 23.1204 134.47 23.0572 134.118 23.0572C133.794 23.0572 133.513 23.1122 133.277 23.2222C133.04 23.3322 132.856 23.4808 132.724 23.6678C132.592 23.8549 132.526 24.0667 132.526 24.3032H130.545C130.545 23.9512 130.63 23.6101 130.801 23.28C130.971 22.9499 131.219 22.6556 131.544 22.397C131.868 22.1384 132.256 21.9349 132.707 21.7863C133.158 21.6378 133.664 21.5635 134.226 21.5635C134.897 21.5635 135.491 21.6763 136.008 21.9018C136.531 22.1274 136.941 22.4685 137.238 22.9251C137.54 23.3762 137.692 23.9429 137.692 24.6251V28.5944C137.692 29.0015 137.719 29.3674 137.774 29.692C137.835 30.011 137.92 30.2889 138.03 30.5254V30.6575H135.992C135.898 30.4429 135.824 30.1706 135.769 29.8405C135.719 29.5049 135.694 29.1803 135.694 28.8667ZM135.983 25.2275L136 26.4571H134.572C134.204 26.4571 133.879 26.4928 133.598 26.5644C133.318 26.6304 133.084 26.7294 132.897 26.8614C132.71 26.9935 132.57 27.153 132.476 27.3401C132.383 27.5271 132.336 27.7389 132.336 27.9755C132.336 28.2121 132.391 28.4294 132.501 28.6274C132.611 28.82 132.77 28.9713 132.979 29.0813C133.194 29.1913 133.453 29.2463 133.755 29.2463C134.162 29.2463 134.517 29.1638 134.82 28.9988C135.128 28.8282 135.37 28.6219 135.546 28.3799C135.722 28.1323 135.816 27.8985 135.827 27.6784L136.47 28.5614C136.404 28.787 136.291 29.029 136.132 29.2876C135.972 29.5462 135.763 29.7937 135.505 30.0303C135.252 30.2614 134.946 30.4512 134.589 30.5997C134.237 30.7482 133.829 30.8225 133.367 30.8225C132.784 30.8225 132.264 30.707 131.808 30.4759C131.351 30.2394 130.993 29.923 130.735 29.5269C130.476 29.1253 130.347 28.6714 130.347 28.1653C130.347 27.6922 130.435 27.2741 130.611 26.911C130.793 26.5424 131.057 26.2343 131.403 25.9867C131.755 25.7391 132.185 25.5521 132.691 25.4256C133.197 25.2935 133.774 25.2275 134.424 25.2275H135.983ZM141.768 23.4285V30.6575H139.779V21.7286H141.677L141.768 23.4285ZM144.5 21.6708L144.483 23.5193C144.362 23.4973 144.23 23.4808 144.087 23.4698C143.949 23.4588 143.812 23.4533 143.674 23.4533C143.333 23.4533 143.033 23.5028 142.775 23.6018C142.516 23.6953 142.299 23.8329 142.123 24.0144C141.952 24.1905 141.82 24.405 141.727 24.6581C141.633 24.9112 141.578 25.1945 141.562 25.5081L141.108 25.5411C141.108 24.9799 141.163 24.46 141.273 23.9814C141.383 23.5028 141.548 23.0819 141.768 22.7188C141.994 22.3557 142.274 22.0724 142.61 21.8688C142.951 21.6653 143.344 21.5635 143.79 21.5635C143.911 21.5635 144.04 21.5745 144.178 21.5965C144.321 21.6185 144.428 21.6433 144.5 21.6708ZM151.027 28.809V17.982H153.024V30.6575H151.217L151.027 28.809ZM145.218 26.292V26.1187C145.218 25.4421 145.297 24.8259 145.457 24.2702C145.616 23.7091 145.847 23.2277 146.15 22.8261C146.453 22.419 146.821 22.1082 147.256 21.8936C147.69 21.6735 148.18 21.5635 148.725 21.5635C149.264 21.5635 149.737 21.668 150.144 21.8771C150.551 22.0861 150.898 22.386 151.184 22.7766C151.47 23.1617 151.698 23.6238 151.869 24.163C152.039 24.6966 152.16 25.2908 152.232 25.9454V26.4983C152.16 27.1365 152.039 27.7197 151.869 28.2478C151.698 28.776 151.47 29.2326 151.184 29.6177C150.898 30.0028 150.549 30.2999 150.136 30.5089C149.729 30.718 149.253 30.8225 148.708 30.8225C148.169 30.8225 147.682 30.7097 147.248 30.4842C146.818 30.2586 146.453 29.9423 146.15 29.5352C145.847 29.1281 145.616 28.6494 145.457 28.0993C145.297 27.5436 145.218 26.9412 145.218 26.292ZM147.206 26.1187V26.292C147.206 26.6991 147.242 27.0788 147.314 27.4308C147.391 27.7829 147.509 28.0938 147.668 28.3633C147.828 28.6274 148.034 28.8365 148.287 28.9905C148.546 29.1391 148.854 29.2133 149.212 29.2133C149.663 29.2133 150.034 29.1143 150.326 28.9162C150.617 28.7182 150.846 28.4514 151.011 28.1158C151.181 27.7747 151.297 27.3951 151.357 26.977V25.4833C151.324 25.1587 151.255 24.8561 151.151 24.5756C151.052 24.295 150.917 24.0502 150.747 23.8411C150.576 23.6266 150.364 23.4615 150.111 23.346C149.864 23.225 149.569 23.1644 149.228 23.1644C148.865 23.1644 148.557 23.2415 148.304 23.3955C148.051 23.5495 147.842 23.7614 147.677 24.0309C147.517 24.3005 147.399 24.6141 147.322 24.9717C147.245 25.3293 147.206 25.7116 147.206 26.1187ZM160.352 18.6422H162.201L165.675 27.9095L169.141 18.6422H170.989L166.401 30.6575H164.932L160.352 18.6422ZM159.51 18.6422H161.268L161.573 26.6634V30.6575H159.51V18.6422ZM170.073 18.6422H171.839V30.6575H169.768V26.6634L170.073 18.6422ZM173.721 26.292V26.1022C173.721 25.4586 173.814 24.8616 174.001 24.3115C174.188 23.7558 174.458 23.2745 174.81 22.8674C175.168 22.4547 175.602 22.1357 176.114 21.9101C176.631 21.679 177.214 21.5635 177.863 21.5635C178.518 21.5635 179.101 21.679 179.613 21.9101C180.13 22.1357 180.567 22.4547 180.925 22.8674C181.283 23.2745 181.555 23.7558 181.742 24.3115C181.929 24.8616 182.023 25.4586 182.023 26.1022V26.292C182.023 26.9357 181.929 27.5326 181.742 28.0828C181.555 28.6329 181.283 29.1143 180.925 29.5269C180.567 29.934 180.133 30.2531 179.621 30.4842C179.11 30.7097 178.529 30.8225 177.88 30.8225C177.225 30.8225 176.639 30.7097 176.122 30.4842C175.611 30.2531 175.176 29.934 174.818 29.5269C174.461 29.1143 174.188 28.6329 174.001 28.0828C173.814 27.5326 173.721 26.9357 173.721 26.292ZM175.71 26.1022V26.292C175.71 26.6936 175.751 27.0732 175.833 27.4308C175.916 27.7884 176.045 28.102 176.221 28.3716C176.397 28.6412 176.623 28.853 176.898 29.007C177.173 29.1611 177.5 29.2381 177.88 29.2381C178.249 29.2381 178.568 29.1611 178.837 29.007C179.112 28.853 179.338 28.6412 179.514 28.3716C179.69 28.102 179.819 27.7884 179.902 27.4308C179.99 27.0732 180.034 26.6936 180.034 26.292V26.1022C180.034 25.7061 179.99 25.332 179.902 24.9799C179.819 24.6223 179.687 24.306 179.506 24.0309C179.33 23.7558 179.104 23.5413 178.829 23.3872C178.559 23.2277 178.238 23.1479 177.863 23.1479C177.489 23.1479 177.165 23.2277 176.89 23.3872C176.62 23.5413 176.397 23.7558 176.221 24.0309C176.045 24.306 175.916 24.6223 175.833 24.9799C175.751 25.332 175.71 25.7061 175.71 26.1022ZM189.136 28.809V17.982H191.133V30.6575H189.326L189.136 28.809ZM183.326 26.292V26.1187C183.326 25.4421 183.406 24.8259 183.566 24.2702C183.725 23.7091 183.956 23.2277 184.259 22.8261C184.561 22.419 184.93 22.1082 185.365 21.8936C185.799 21.6735 186.289 21.5635 186.834 21.5635C187.373 21.5635 187.846 21.668 188.253 21.8771C188.66 22.0861 189.007 22.386 189.293 22.7766C189.579 23.1617 189.807 23.6238 189.978 24.163C190.148 24.6966 190.269 25.2908 190.341 25.9454V26.4983C190.269 27.1365 190.148 27.7197 189.978 28.2478C189.807 28.776 189.579 29.2326 189.293 29.6177C189.007 30.0028 188.657 30.2999 188.245 30.5089C187.838 30.718 187.362 30.8225 186.817 30.8225C186.278 30.8225 185.791 30.7097 185.356 30.4842C184.927 30.2586 184.561 29.9423 184.259 29.5352C183.956 29.1281 183.725 28.6494 183.566 28.0993C183.406 27.5436 183.326 26.9412 183.326 26.292ZM185.315 26.1187V26.292C185.315 26.6991 185.351 27.0788 185.422 27.4308C185.499 27.7829 185.618 28.0938 185.777 28.3633C185.937 28.6274 186.143 28.8365 186.396 28.9905C186.655 29.1391 186.963 29.2133 187.32 29.2133C187.772 29.2133 188.143 29.1143 188.435 28.9162C188.726 28.7182 188.954 28.4514 189.119 28.1158C189.29 27.7747 189.406 27.3951 189.466 26.977V25.4833C189.433 25.1587 189.364 24.8561 189.26 24.5756C189.161 24.295 189.026 24.0502 188.855 23.8411C188.685 23.6266 188.473 23.4615 188.22 23.346C187.972 23.225 187.678 23.1644 187.337 23.1644C186.974 23.1644 186.666 23.2415 186.413 23.3955C186.16 23.5495 185.951 23.7614 185.786 24.0309C185.626 24.3005 185.508 24.6141 185.431 24.9717C185.354 25.3293 185.315 25.7116 185.315 26.1187ZM198.585 28.5532V21.7286H200.582V30.6575H198.7L198.585 28.5532ZM198.865 26.6964L199.534 26.6799C199.534 27.2796 199.468 27.8325 199.336 28.3386C199.204 28.8392 199 29.2766 198.725 29.6507C198.45 30.0193 198.098 30.3081 197.669 30.5172C197.24 30.7207 196.725 30.8225 196.126 30.8225C195.691 30.8225 195.292 30.7592 194.929 30.6327C194.566 30.5062 194.252 30.3109 193.988 30.0468C193.73 29.7827 193.529 29.4389 193.386 29.0153C193.243 28.5917 193.171 28.0855 193.171 27.4969V21.7286H195.16V27.5134C195.16 27.838 195.199 28.1103 195.276 28.3303C195.353 28.5449 195.457 28.7182 195.589 28.8502C195.721 28.9823 195.875 29.0758 196.051 29.1308C196.227 29.1858 196.414 29.2133 196.612 29.2133C197.179 29.2133 197.625 29.1033 197.949 28.8832C198.279 28.6577 198.513 28.3551 198.651 27.9755C198.794 27.5959 198.865 27.1695 198.865 26.6964ZM204.749 17.982V30.6575H202.752V17.982H204.749ZM210.864 30.8225C210.204 30.8225 209.607 30.7152 209.073 30.5007C208.545 30.2806 208.094 29.9753 207.72 29.5847C207.351 29.1941 207.068 28.7347 206.87 28.2066C206.672 27.6784 206.573 27.109 206.573 26.4983V26.1683C206.573 25.4696 206.675 24.8369 206.878 24.2702C207.082 23.7036 207.365 23.2195 207.728 22.8178C208.091 22.4107 208.52 22.0999 209.016 21.8853C209.511 21.6708 210.047 21.5635 210.625 21.5635C211.263 21.5635 211.821 21.6708 212.3 21.8853C212.779 22.0999 213.175 22.4025 213.488 22.7931C213.807 23.1782 214.044 23.6376 214.198 24.1712C214.358 24.7049 214.437 25.2935 214.437 25.9372V26.7872H207.538V25.3595H212.473V25.2027C212.462 24.8451 212.391 24.5096 212.259 24.196C212.132 23.8824 211.937 23.6293 211.673 23.4368C211.409 23.2442 211.057 23.1479 210.617 23.1479C210.286 23.1479 209.992 23.2195 209.734 23.3625C209.48 23.5 209.269 23.7008 209.098 23.9649C208.928 24.229 208.796 24.5481 208.702 24.9222C208.614 25.2908 208.57 25.7061 208.57 26.1683V26.4983C208.57 26.8889 208.622 27.252 208.727 27.5876C208.837 27.9177 208.996 28.2066 209.205 28.4541C209.414 28.7017 209.668 28.897 209.965 29.04C210.262 29.1776 210.6 29.2463 210.98 29.2463C211.458 29.2463 211.885 29.1501 212.259 28.9575C212.633 28.765 212.957 28.4926 213.232 28.1405L214.281 29.1556C214.088 29.4361 213.838 29.7057 213.53 29.9643C213.221 30.2174 212.845 30.4237 212.399 30.5832C211.959 30.7427 211.447 30.8225 210.864 30.8225Z" fill="white"/>
</g>
<rect x="7.5" y="6.5" width="448.481" height="292.346" rx="13.6942" stroke="#F7F7F7"/>
</g>
<defs>
<filter id="filter0_d_2778_20982" x="0" y="0" width="469.481" height="313.346" filterUnits="userSpaceOnUse" color-interpolation-filters="sRGB">
<feFlood flood-opacity="0" result="BackgroundImageFix"/>
<feColorMatrix in="SourceAlpha" type="matrix" values="0 0 0 0 0 0 0 0 0 0 0 0 0 0 0 0 0 0 127 0" result="hardAlpha"/>
<feOffset dx="3" dy="4"/>
<feGaussianBlur stdDeviation="5"/>
<feComposite in2="hardAlpha" operator="out"/>
<feColorMatrix type="matrix" values="0 0 0 0 0.591667 0 0 0 0 0.591667 0 0 0 0 0.591667 0 0 0 0.25 0"/>
<feBlend mode="normal" in2="BackgroundImageFix" result="effect1_dropShadow_2778_20982"/>
<feBlend mode="normal" in="SourceGraphic" in2="effect1_dropShadow_2778_20982" result="shape"/>
</filter>
<clipPath id="clip0_2778_20982">
<rect x="7" y="6" width="449.481" height="293.346" rx="14.1942" fill="white"/>
</clipPath>
</defs>
</svg>
